<?xml version="1.0" encoding="utf-8"?>
<svg xmlns="http://www.w3.org/2000/svg" xmlns:xlink="http://www.w3.org/1999/xlink" width="600" height="400" viewBox="0 0 2400 1600">
<defs>
  <clipPath id="clip460">
    <rect x="0" y="0" width="2400" height="1600"/>
  </clipPath>
</defs>
<path clip-path="url(#clip460)" d="M0 1600 L2400 1600 L2400 0 L0 0  Z" fill="#ffffff" fill-rule="evenodd" fill-opacity="1"/>
<defs>
  <clipPath id="clip461">
    <rect x="480" y="0" width="1681" height="1600"/>
  </clipPath>
</defs>
<path clip-path="url(#clip460)" d="M262.759 1423.18 L2352.76 1423.18 L2352.76 47.2441 L262.759 47.2441  Z" fill="#ffffff" fill-rule="evenodd" fill-opacity="1"/>
<defs>
  <clipPath id="clip462">
    <rect x="262" y="47" width="2091" height="1377"/>
  </clipPath>
</defs>
<polyline clip-path="url(#clip462)" style="stroke:#000000; stroke-linecap:round; stroke-linejoin:round; stroke-width:2; stroke-opacity:0.1; fill:none" points="267.141,1423.18 267.141,47.2441 "/>
<polyline clip-path="url(#clip462)" style="stroke:#000000; stroke-linecap:round; stroke-linejoin:round; stroke-width:2; stroke-opacity:0.1; fill:none" points="814.834,1423.18 814.834,47.2441 "/>
<polyline clip-path="url(#clip462)" style="stroke:#000000; stroke-linecap:round; stroke-linejoin:round; stroke-width:2; stroke-opacity:0.1; fill:none" points="1362.53,1423.18 1362.53,47.2441 "/>
<polyline clip-path="url(#clip462)" style="stroke:#000000; stroke-linecap:round; stroke-linejoin:round; stroke-width:2; stroke-opacity:0.1; fill:none" points="1910.22,1423.18 1910.22,47.2441 "/>
<polyline clip-path="url(#clip460)" style="stroke:#000000; stroke-linecap:round; stroke-linejoin:round; stroke-width:4; stroke-opacity:1; fill:none" points="262.759,1423.18 2352.76,1423.18 "/>
<polyline clip-path="url(#clip460)" style="stroke:#000000; stroke-linecap:round; stroke-linejoin:round; stroke-width:4; stroke-opacity:1; fill:none" points="267.141,1423.18 267.141,1404.28 "/>
<polyline clip-path="url(#clip460)" style="stroke:#000000; stroke-linecap:round; stroke-linejoin:round; stroke-width:4; stroke-opacity:1; fill:none" points="814.834,1423.18 814.834,1404.28 "/>
<polyline clip-path="url(#clip460)" style="stroke:#000000; stroke-linecap:round; stroke-linejoin:round; stroke-width:4; stroke-opacity:1; fill:none" points="1362.53,1423.18 1362.53,1404.28 "/>
<polyline clip-path="url(#clip460)" style="stroke:#000000; stroke-linecap:round; stroke-linejoin:round; stroke-width:4; stroke-opacity:1; fill:none" points="1910.22,1423.18 1910.22,1404.28 "/>
<path clip-path="url(#clip460)" d="M256.494 1469.4 Q256.494 1461.96 258.371 1457.91 Q260.99 1451.88 267.166 1451.88 Q268.475 1451.88 269.833 1452.26 Q271.217 1452.6 272.946 1453.96 Q274.7 1455.32 275.762 1457.54 Q277.788 1461.84 277.788 1469.4 Q277.788 1476.79 275.91 1480.81 Q273.168 1486.69 267.116 1486.69 Q264.843 1486.69 262.521 1485.53 Q260.224 1484.37 258.766 1481.58 Q256.494 1477.4 256.494 1469.4 M260.693 1468.78 Q260.693 1476.41 261.237 1479.45 Q261.854 1482.74 263.534 1484.17 Q265.239 1485.58 267.116 1485.58 Q269.142 1485.58 270.822 1484.07 Q272.526 1482.54 273.045 1479.26 Q273.613 1476.02 273.588 1468.78 Q273.588 1461.74 273.094 1458.92 Q272.427 1455.64 270.649 1454.33 Q268.895 1453 267.116 1453 Q266.449 1453 265.733 1453.19 Q265.041 1453.39 264.028 1453.96 Q263.015 1454.53 262.225 1455.94 Q261.459 1457.34 261.088 1459.47 Q260.693 1462.21 260.693 1468.78 Z" fill="#000000" fill-rule="nonzero" fill-opacity="1" /><path clip-path="url(#clip460)" d="M792.798 1456.7 L792.798 1455.12 Q798.875 1455.12 802.013 1451.88 Q802.877 1451.88 803.026 1452.08 Q803.174 1452.28 803.174 1453.19 L803.174 1481.58 Q803.174 1483.08 803.915 1483.55 Q804.656 1484.02 807.892 1484.02 L809.498 1484.02 L809.498 1485.58 Q807.719 1485.43 801.296 1485.43 Q794.874 1485.43 793.12 1485.58 L793.12 1484.02 L794.725 1484.02 Q797.912 1484.02 798.678 1483.58 Q799.444 1483.11 799.444 1481.58 L799.444 1455.37 Q796.8 1456.7 792.798 1456.7 Z" fill="#000000" fill-rule="nonzero" fill-opacity="1" /><path clip-path="url(#clip460)" d="M815.575 1469.4 Q815.575 1461.96 817.452 1457.91 Q820.071 1451.88 826.247 1451.88 Q827.556 1451.88 828.915 1452.26 Q830.298 1452.6 832.027 1453.96 Q833.781 1455.32 834.844 1457.54 Q836.869 1461.84 836.869 1469.4 Q836.869 1476.79 834.992 1480.81 Q832.25 1486.69 826.197 1486.69 Q823.925 1486.69 821.603 1485.53 Q819.305 1484.37 817.848 1481.58 Q815.575 1477.4 815.575 1469.4 M819.775 1468.78 Q819.775 1476.41 820.318 1479.45 Q820.936 1482.74 822.615 1484.17 Q824.32 1485.58 826.197 1485.58 Q828.223 1485.58 829.903 1484.07 Q831.607 1482.54 832.126 1479.26 Q832.694 1476.02 832.67 1468.78 Q832.67 1461.74 832.176 1458.92 Q831.509 1455.64 829.73 1454.33 Q827.976 1453 826.197 1453 Q825.53 1453 824.814 1453.19 Q824.122 1453.39 823.109 1453.96 Q822.097 1454.53 821.306 1455.94 Q820.54 1457.34 820.17 1459.47 Q819.775 1462.21 819.775 1468.78 Z" fill="#000000" fill-rule="nonzero" fill-opacity="1" /><path clip-path="url(#clip460)" d="M1339.5 1485.58 Q1339.5 1484.67 1339.58 1484.39 Q1339.68 1484.12 1340.07 1483.7 L1349.78 1472.88 Q1355.09 1466.9 1355.09 1461.69 Q1355.09 1458.31 1353.31 1455.89 Q1351.56 1453.47 1348.32 1453.47 Q1346.1 1453.47 1344.22 1454.82 Q1342.34 1456.18 1341.48 1458.6 Q1341.63 1458.55 1342.15 1458.55 Q1343.41 1458.55 1344.1 1459.34 Q1344.81 1460.14 1344.81 1461.2 Q1344.81 1462.56 1343.93 1463.22 Q1343.06 1463.87 1342.2 1463.87 Q1341.85 1463.87 1341.38 1463.79 Q1340.94 1463.72 1340.22 1463.03 Q1339.5 1462.31 1339.5 1461.05 Q1339.5 1457.52 1342.17 1454.7 Q1344.86 1451.88 1348.96 1451.88 Q1353.61 1451.88 1356.65 1454.65 Q1359.71 1457.39 1359.71 1461.69 Q1359.71 1463.2 1359.24 1464.58 Q1358.8 1465.94 1358.18 1467 Q1357.59 1468.07 1355.96 1469.77 Q1354.33 1471.47 1353.02 1472.68 Q1351.71 1473.9 1348.77 1476.46 L1343.41 1481.68 L1352.52 1481.68 Q1356.97 1481.68 1357.31 1481.28 Q1357.81 1480.57 1358.43 1476.79 L1359.71 1476.79 L1358.28 1485.58 L1339.5 1485.58 Z" fill="#000000" fill-rule="nonzero" fill-opacity="1" /><path clip-path="url(#clip460)" d="M1364.26 1469.4 Q1364.26 1461.96 1366.13 1457.91 Q1368.75 1451.88 1374.93 1451.88 Q1376.24 1451.88 1377.6 1452.26 Q1378.98 1452.6 1380.71 1453.96 Q1382.46 1455.32 1383.52 1457.54 Q1385.55 1461.84 1385.55 1469.4 Q1385.55 1476.79 1383.67 1480.81 Q1380.93 1486.69 1374.88 1486.69 Q1372.61 1486.69 1370.28 1485.53 Q1367.99 1484.37 1366.53 1481.58 Q1364.26 1477.4 1364.26 1469.4 M1368.46 1468.78 Q1368.46 1476.41 1369 1479.45 Q1369.62 1482.74 1371.3 1484.17 Q1373 1485.58 1374.88 1485.58 Q1376.9 1485.58 1378.58 1484.07 Q1380.29 1482.54 1380.81 1479.26 Q1381.38 1476.02 1381.35 1468.78 Q1381.35 1461.74 1380.86 1458.92 Q1380.19 1455.64 1378.41 1454.33 Q1376.66 1453 1374.88 1453 Q1374.21 1453 1373.5 1453.19 Q1372.8 1453.39 1371.79 1453.96 Q1370.78 1454.53 1369.99 1455.94 Q1369.22 1457.34 1368.85 1459.47 Q1368.46 1462.21 1368.46 1468.78 Z" fill="#000000" fill-rule="nonzero" fill-opacity="1" /><path clip-path="url(#clip460)" d="M1887 1478.76 Q1887 1477.25 1887.86 1476.54 Q1888.73 1475.82 1889.84 1475.82 Q1891 1475.82 1891.82 1476.59 Q1892.66 1477.33 1892.66 1478.64 Q1892.66 1480.05 1891.67 1480.84 Q1890.7 1481.63 1889.32 1481.43 Q1890.53 1483.46 1892.75 1484.37 Q1895 1485.28 1897.08 1485.28 Q1899.25 1485.28 1901.01 1483.41 Q1902.78 1481.53 1902.78 1476.93 Q1902.78 1473.03 1901.25 1470.78 Q1899.75 1468.53 1896.76 1468.53 L1894.53 1468.53 Q1893.77 1468.53 1893.55 1468.46 Q1893.32 1468.39 1893.32 1467.97 Q1893.32 1467.47 1894.09 1467.37 Q1894.85 1467.37 1896.06 1467.23 Q1899 1467.13 1900.56 1464.58 Q1901.97 1462.21 1901.97 1458.83 Q1901.97 1455.74 1900.49 1454.45 Q1899.03 1453.14 1897.13 1453.14 Q1895.35 1453.14 1893.4 1453.89 Q1891.45 1454.63 1890.38 1456.28 Q1893.52 1456.28 1893.52 1458.83 Q1893.52 1459.94 1892.8 1460.68 Q1892.11 1461.4 1890.95 1461.4 Q1889.84 1461.4 1889.1 1460.7 Q1888.36 1459.99 1888.36 1458.78 Q1888.36 1455.89 1890.93 1453.89 Q1893.52 1451.88 1897.32 1451.88 Q1901.08 1451.88 1903.85 1453.86 Q1906.64 1455.84 1906.64 1458.88 Q1906.64 1461.86 1904.66 1464.31 Q1902.69 1466.76 1899.55 1467.77 Q1903.4 1468.53 1905.7 1471.15 Q1908 1473.75 1908 1476.93 Q1908 1480.89 1904.88 1483.8 Q1901.77 1486.69 1897.23 1486.69 Q1893.03 1486.69 1890.01 1484.42 Q1887 1482.15 1887 1478.76 Z" fill="#000000" fill-rule="nonzero" fill-opacity="1" /><path clip-path="url(#clip460)" d="M1912.15 1469.4 Q1912.15 1461.96 1914.02 1457.91 Q1916.64 1451.88 1922.82 1451.88 Q1924.13 1451.88 1925.49 1452.26 Q1926.87 1452.6 1928.6 1453.96 Q1930.35 1455.32 1931.42 1457.54 Q1933.44 1461.84 1933.44 1469.4 Q1933.44 1476.79 1931.56 1480.81 Q1928.82 1486.69 1922.77 1486.69 Q1920.5 1486.69 1918.17 1485.53 Q1915.88 1484.37 1914.42 1481.58 Q1912.15 1477.4 1912.15 1469.4 M1916.35 1468.78 Q1916.35 1476.41 1916.89 1479.45 Q1917.51 1482.74 1919.19 1484.17 Q1920.89 1485.58 1922.77 1485.58 Q1924.79 1485.58 1926.47 1484.07 Q1928.18 1482.54 1928.7 1479.26 Q1929.27 1476.02 1929.24 1468.78 Q1929.24 1461.74 1928.75 1458.92 Q1928.08 1455.64 1926.3 1454.33 Q1924.55 1453 1922.77 1453 Q1922.1 1453 1921.39 1453.19 Q1920.69 1453.39 1919.68 1453.96 Q1918.67 1454.53 1917.88 1455.94 Q1917.11 1457.34 1916.74 1459.47 Q1916.35 1462.21 1916.35 1468.78 Z" fill="#000000" fill-rule="nonzero" fill-opacity="1" /><path clip-path="url(#clip460)" d="M993.511 1562.16 L993.511 1560.02 Q996.024 1560.02 997.621 1559.55 Q999.217 1559.04 999.795 1558.12 Q1000.41 1557.17 1000.54 1556.56 Q1000.68 1555.91 1000.68 1554.86 L1000.68 1520.08 Q1000.68 1518.08 999.795 1517.46 Q998.946 1516.82 995.175 1516.82 L993.511 1516.82 L993.511 1514.64 L1005.26 1514.64 Q1006.52 1514.64 1006.86 1514.88 Q1007.2 1515.09 1007.71 1516.17 L1022.79 1555.13 L1038.01 1515.97 Q1038.35 1514.98 1038.65 1514.81 Q1038.99 1514.64 1040.32 1514.64 L1052.07 1514.64 L1052.07 1516.82 L1050.41 1516.82 Q1046.64 1516.82 1045.75 1517.46 Q1044.9 1518.08 1044.9 1520.08 L1044.9 1556.73 Q1044.9 1558.73 1045.75 1559.38 Q1046.64 1560.02 1050.41 1560.02 L1052.07 1560.02 L1052.07 1562.16 Q1049.49 1561.96 1042.12 1561.96 Q1034.68 1561.96 1032.1 1562.16 L1032.1 1560.02 L1033.8 1560.02 Q1037.57 1560.02 1038.42 1559.41 Q1039.26 1558.77 1039.26 1556.73 L1039.26 1516.82 L1039.2 1516.82 L1022.11 1560.84 Q1021.64 1562.16 1020.85 1562.16 Q1020.01 1562.16 1019.46 1560.64 L1002.68 1517.36 L1002.61 1517.36 L1002.61 1554.86 Q1002.61 1555.91 1002.75 1556.56 Q1002.89 1557.17 1003.46 1558.12 Q1004.07 1559.04 1005.67 1559.55 Q1007.27 1560.02 1009.78 1560.02 L1009.78 1562.16 Q1002.48 1561.96 1001.63 1561.96 Q1000.81 1561.96 993.511 1562.16 Z" fill="#000000" fill-rule="nonzero" fill-opacity="1" /><path clip-path="url(#clip460)" d="M1056.86 1534.35 L1056.86 1532.17 L1067.08 1531.42 L1067.08 1554.52 Q1067.08 1556.19 1067.22 1557.17 Q1067.36 1558.12 1067.9 1559.24 Q1068.48 1560.36 1069.77 1560.87 Q1071.09 1561.38 1073.2 1561.38 Q1076.97 1561.38 1079.28 1558.29 Q1081.62 1555.2 1081.62 1550.62 L1081.62 1538.22 Q1081.62 1535.64 1080.7 1534.99 Q1079.79 1534.35 1076.19 1534.35 L1076.19 1532.17 L1086.41 1531.42 L1086.41 1556.12 Q1086.41 1558.7 1087.29 1559.38 Q1088.21 1560.02 1091.85 1560.02 L1091.85 1562.16 L1081.83 1562.95 L1081.83 1556.66 Q1078.9 1562.91 1072.86 1562.95 Q1069.8 1562.95 1067.7 1562.16 Q1065.62 1561.38 1064.57 1560.43 Q1063.52 1559.45 1062.94 1557.58 Q1062.4 1555.71 1062.33 1554.56 Q1062.26 1553.4 1062.26 1551.16 L1062.26 1540.73 Q1062.26 1536.01 1061.58 1535.19 Q1060.9 1534.35 1056.86 1534.35 Z" fill="#000000" fill-rule="nonzero" fill-opacity="1" /><path clip-path="url(#clip460)" d="M1095.51 1562.16 L1095.51 1560.02 Q1099.22 1560.02 1100.07 1559.58 Q1100.91 1559.11 1100.91 1556.87 L1100.91 1520.69 Q1100.91 1518.11 1100 1517.46 Q1099.11 1516.82 1095.51 1516.82 L1095.51 1514.64 L1105.5 1513.9 L1105.5 1556.87 Q1105.5 1559.11 1106.38 1559.58 Q1107.27 1560.02 1110.94 1560.02 L1110.94 1562.16 Q1110.09 1562.16 1108.32 1562.1 Q1106.55 1562.03 1105.26 1561.99 Q1103.97 1561.96 1103.22 1561.96 Q1102.41 1561.96 1095.51 1562.16 Z" fill="#000000" fill-rule="nonzero" fill-opacity="1" /><path clip-path="url(#clip460)" d="M1113.79 1534.35 L1113.79 1532.82 Q1116.98 1532.68 1119.09 1530.44 Q1121.23 1528.16 1121.94 1525.38 Q1122.69 1522.59 1122.76 1519.37 L1124.49 1519.37 L1124.49 1532.17 L1134.44 1532.17 L1134.44 1534.35 L1124.49 1534.35 L1124.49 1553.67 Q1124.49 1561.18 1129.18 1561.18 Q1131.18 1561.18 1132.5 1559.14 Q1133.83 1557.07 1133.83 1553.4 L1133.83 1549.56 L1135.56 1549.56 L1135.56 1553.54 Q1135.56 1557.31 1133.83 1560.13 Q1132.1 1562.95 1128.67 1562.95 Q1127.41 1562.95 1126.15 1562.61 Q1124.93 1562.3 1123.3 1561.49 Q1121.7 1560.64 1120.68 1558.6 Q1119.7 1556.53 1119.7 1553.54 L1119.7 1534.35 L1113.79 1534.35 Z" fill="#000000" fill-rule="nonzero" fill-opacity="1" /><path clip-path="url(#clip460)" d="M1141.74 1562.16 L1141.74 1560.02 Q1145.45 1560.02 1146.3 1559.58 Q1147.14 1559.11 1147.14 1556.87 L1147.14 1538.15 Q1147.14 1535.57 1146.26 1534.96 Q1145.41 1534.35 1142.02 1534.35 L1142.02 1532.17 L1151.73 1531.42 L1151.73 1556.93 Q1151.73 1559.01 1152.48 1559.52 Q1153.22 1560.02 1156.62 1560.02 L1156.62 1562.16 Q1149.52 1561.96 1149.39 1561.96 Q1148.43 1561.96 1141.74 1562.16 M1144.66 1519.3 Q1144.66 1517.91 1145.72 1516.78 Q1146.8 1515.63 1148.33 1515.63 Q1149.86 1515.63 1150.95 1516.68 Q1152.04 1517.7 1152.04 1519.33 Q1152.04 1520.93 1150.95 1521.98 Q1149.86 1523 1148.33 1523 Q1146.74 1523 1145.68 1521.88 Q1144.66 1520.76 1144.66 1519.3 Z" fill="#000000" fill-rule="nonzero" fill-opacity="1" /><path clip-path="url(#clip460)" d="M1160.63 1573.51 Q1164.33 1573.51 1165.18 1573.03 Q1166.06 1572.59 1166.06 1570.38 L1166.06 1537.81 Q1166.06 1535.5 1165.18 1534.92 Q1164.33 1534.35 1160.63 1534.35 L1160.63 1532.17 L1170.65 1531.42 L1170.65 1536.01 Q1174.83 1531.42 1180.4 1531.42 Q1186.31 1531.42 1190.62 1536.01 Q1194.94 1540.6 1194.94 1547.15 Q1194.94 1553.77 1190.35 1558.36 Q1185.76 1562.95 1179.41 1562.95 Q1175.95 1562.95 1173.6 1561.18 Q1171.29 1559.38 1170.85 1558.05 L1170.85 1558.7 L1170.85 1570.38 Q1170.85 1572.63 1171.74 1573.07 Q1172.62 1573.51 1176.29 1573.51 L1176.29 1575.65 Q1168.99 1575.45 1168.44 1575.45 Q1167.76 1575.45 1160.63 1575.65 L1160.63 1573.51 M1170.85 1554.25 Q1170.85 1555.3 1170.99 1555.68 Q1171.16 1556.05 1171.84 1557.17 Q1174.59 1561.38 1179.07 1561.38 Q1179.11 1561.38 1179.14 1561.38 Q1183.12 1561.38 1186.14 1557.34 Q1189.16 1553.27 1189.16 1547.15 Q1189.16 1541.31 1186.41 1537.23 Q1183.66 1533.16 1179.85 1533.16 Q1177.14 1533.16 1174.76 1534.62 Q1172.38 1536.08 1170.85 1538.73 L1170.85 1554.25 Z" fill="#000000" fill-rule="nonzero" fill-opacity="1" /><path clip-path="url(#clip460)" d="M1205.74 1558.43 Q1201.15 1553.88 1201.15 1547.29 Q1201.15 1540.66 1205.64 1535.84 Q1210.15 1530.98 1216.61 1530.98 Q1222.92 1530.98 1227.44 1535.81 Q1231.99 1540.6 1231.99 1547.29 Q1231.99 1553.84 1227.41 1558.39 Q1222.86 1562.95 1216.54 1562.95 Q1210.36 1562.95 1205.74 1558.43 M1206.93 1546.71 Q1206.93 1553.47 1208.69 1556.53 Q1211.41 1561.18 1216.61 1561.18 Q1219.19 1561.18 1221.33 1559.79 Q1223.5 1558.39 1224.69 1556.05 Q1226.22 1552.99 1226.22 1546.71 Q1226.22 1540.02 1224.39 1537.06 Q1221.67 1532.55 1216.54 1532.55 Q1214.3 1532.55 1212.09 1533.73 Q1209.92 1534.89 1208.59 1537.2 Q1206.93 1540.26 1206.93 1546.71 Z" fill="#000000" fill-rule="nonzero" fill-opacity="1" /><path clip-path="url(#clip460)" d="M1236.31 1562.16 L1236.31 1560.02 Q1240.01 1560.02 1240.86 1559.58 Q1241.71 1559.11 1241.71 1556.87 L1241.71 1520.69 Q1241.71 1518.11 1240.79 1517.46 Q1239.91 1516.82 1236.31 1516.82 L1236.31 1514.64 L1246.29 1513.9 L1246.29 1556.87 Q1246.29 1559.11 1247.18 1559.58 Q1248.06 1560.02 1251.73 1560.02 L1251.73 1562.16 Q1250.88 1562.16 1249.11 1562.1 Q1247.35 1562.03 1246.06 1561.99 Q1244.77 1561.96 1244.02 1561.96 Q1243.2 1561.96 1236.31 1562.16 Z" fill="#000000" fill-rule="nonzero" fill-opacity="1" /><path clip-path="url(#clip460)" d="M1255.19 1546.85 Q1255.19 1540.29 1259.41 1535.64 Q1263.62 1530.98 1269.66 1530.98 Q1275.78 1530.98 1278.94 1534.96 Q1282.13 1538.93 1282.13 1544.64 Q1282.13 1545.69 1281.86 1545.89 Q1281.59 1546.1 1280.4 1546.1 L1260.97 1546.1 Q1260.97 1553.2 1263.07 1556.53 Q1266 1561.18 1270.92 1561.18 Q1271.6 1561.18 1272.41 1561.04 Q1273.23 1560.91 1274.89 1560.33 Q1276.56 1559.72 1278.02 1558.12 Q1279.48 1556.53 1280.33 1554.01 Q1280.53 1553.03 1281.21 1553.06 Q1282.13 1553.06 1282.13 1553.88 Q1282.13 1554.49 1281.45 1555.88 Q1280.8 1557.24 1279.55 1558.87 Q1278.29 1560.5 1275.85 1561.72 Q1273.43 1562.95 1270.51 1562.95 Q1264.4 1562.95 1259.78 1558.33 Q1255.19 1553.67 1255.19 1546.85 M1261.04 1544.64 L1277.54 1544.64 Q1277.54 1543.18 1277.27 1541.55 Q1277.03 1539.92 1276.29 1537.67 Q1275.57 1535.4 1273.88 1533.97 Q1272.18 1532.55 1269.66 1532.55 Q1268.54 1532.55 1267.32 1533.02 Q1266.13 1533.5 1264.67 1534.65 Q1263.21 1535.81 1262.19 1538.42 Q1261.17 1541.04 1261.04 1544.64 Z" fill="#000000" fill-rule="nonzero" fill-opacity="1" /><path clip-path="url(#clip460)" d="M1309.51 1562.16 L1309.51 1560.02 Q1313.21 1560.02 1314.06 1559.58 Q1314.91 1559.11 1314.91 1556.87 L1314.91 1538.22 Q1314.91 1535.64 1313.99 1534.99 Q1313.11 1534.35 1309.51 1534.35 L1309.51 1532.17 L1319.29 1531.42 L1319.29 1538.73 Q1322.55 1531.42 1329.58 1531.42 Q1337.73 1531.42 1338.85 1538.22 Q1340.04 1535.57 1342.52 1533.5 Q1345.04 1531.42 1348.94 1531.42 Q1354.17 1531.42 1356.25 1534.01 Q1357.77 1535.74 1358.08 1537.67 Q1358.39 1539.61 1358.39 1544.64 L1358.39 1557.92 Q1358.45 1559.38 1359.57 1559.72 Q1360.7 1560.02 1363.82 1560.02 L1363.82 1562.16 Q1356.72 1561.96 1356.04 1561.96 Q1355.5 1561.96 1348.16 1562.16 L1348.16 1560.02 Q1351.86 1560.02 1352.71 1559.58 Q1353.6 1559.11 1353.6 1556.87 L1353.6 1540.66 Q1353.6 1537.13 1352.51 1535.06 Q1351.42 1532.95 1348.43 1532.95 Q1344.83 1532.95 1341.95 1535.98 Q1339.06 1539 1339.06 1544.09 L1339.06 1556.87 Q1339.06 1559.11 1339.91 1559.58 Q1340.79 1560.02 1344.49 1560.02 L1344.49 1562.16 Q1337.39 1561.96 1336.68 1561.96 Q1336.14 1561.96 1328.83 1562.16 L1328.83 1560.02 Q1332.54 1560.02 1333.39 1559.58 Q1334.27 1559.11 1334.27 1556.87 L1334.27 1540.66 Q1334.27 1537.13 1333.18 1535.06 Q1332.1 1532.95 1329.11 1532.95 Q1325.51 1532.95 1322.62 1535.98 Q1319.73 1539 1319.73 1544.09 L1319.73 1556.87 Q1319.73 1559.11 1320.58 1559.58 Q1321.46 1560.02 1325.13 1560.02 L1325.13 1562.16 Q1318.03 1561.96 1317.35 1561.96 Q1316.81 1561.96 1309.51 1562.16 Z" fill="#000000" fill-rule="nonzero" fill-opacity="1" /><path clip-path="url(#clip460)" d="M1371.7 1558.43 Q1367.12 1553.88 1367.12 1547.29 Q1367.12 1540.66 1371.6 1535.84 Q1376.12 1530.98 1382.57 1530.98 Q1388.89 1530.98 1393.41 1535.81 Q1397.96 1540.6 1397.96 1547.29 Q1397.96 1553.84 1393.37 1558.39 Q1388.82 1562.95 1382.5 1562.95 Q1376.32 1562.95 1371.7 1558.43 M1372.89 1546.71 Q1372.89 1553.47 1374.66 1556.53 Q1377.37 1561.18 1382.57 1561.18 Q1385.15 1561.18 1387.29 1559.79 Q1389.47 1558.39 1390.65 1556.05 Q1392.18 1552.99 1392.18 1546.71 Q1392.18 1540.02 1390.35 1537.06 Q1387.63 1532.55 1382.5 1532.55 Q1380.26 1532.55 1378.05 1533.73 Q1375.88 1534.89 1374.55 1537.2 Q1372.89 1540.26 1372.89 1546.71 Z" fill="#000000" fill-rule="nonzero" fill-opacity="1" /><path clip-path="url(#clip460)" d="M1402.2 1562.16 L1402.2 1560.02 Q1405.91 1560.02 1406.75 1559.58 Q1407.6 1559.11 1407.6 1556.87 L1407.6 1538.22 Q1407.6 1535.64 1406.69 1534.99 Q1405.8 1534.35 1402.2 1534.35 L1402.2 1532.17 L1411.99 1531.42 L1411.99 1538.73 Q1415.25 1531.42 1422.28 1531.42 Q1430.43 1531.42 1431.55 1538.22 Q1432.74 1535.57 1435.22 1533.5 Q1437.73 1531.42 1441.64 1531.42 Q1446.87 1531.42 1448.94 1534.01 Q1450.47 1535.74 1450.78 1537.67 Q1451.08 1539.61 1451.08 1544.64 L1451.08 1557.92 Q1451.15 1559.38 1452.27 1559.72 Q1453.39 1560.02 1456.52 1560.02 L1456.52 1562.16 Q1449.42 1561.96 1448.74 1561.96 Q1448.19 1561.96 1440.86 1562.16 L1440.86 1560.02 Q1444.56 1560.02 1445.41 1559.58 Q1446.29 1559.11 1446.29 1556.87 L1446.29 1540.66 Q1446.29 1537.13 1445.21 1535.06 Q1444.12 1532.95 1441.13 1532.95 Q1437.53 1532.95 1434.64 1535.98 Q1431.75 1539 1431.75 1544.09 L1431.75 1556.87 Q1431.75 1559.11 1432.6 1559.58 Q1433.49 1560.02 1437.19 1560.02 L1437.19 1562.16 Q1430.09 1561.96 1429.38 1561.96 Q1428.83 1561.96 1421.53 1562.16 L1421.53 1560.02 Q1425.23 1560.02 1426.08 1559.58 Q1426.97 1559.11 1426.97 1556.87 L1426.97 1540.66 Q1426.97 1537.13 1425.88 1535.06 Q1424.79 1532.95 1421.8 1532.95 Q1418.2 1532.95 1415.31 1535.98 Q1412.43 1539 1412.43 1544.09 L1412.43 1556.87 Q1412.43 1559.11 1413.28 1559.58 Q1414.16 1560.02 1417.83 1560.02 L1417.83 1562.16 Q1410.73 1561.96 1410.05 1561.96 Q1409.51 1561.96 1402.2 1562.16 Z" fill="#000000" fill-rule="nonzero" fill-opacity="1" /><path clip-path="url(#clip460)" d="M1459.81 1546.85 Q1459.81 1540.29 1464.02 1535.64 Q1468.24 1530.98 1474.28 1530.98 Q1480.4 1530.98 1483.55 1534.96 Q1486.75 1538.93 1486.75 1544.64 Q1486.75 1545.69 1486.48 1545.89 Q1486.2 1546.1 1485.02 1546.1 L1465.59 1546.1 Q1465.59 1553.2 1467.69 1556.53 Q1470.61 1561.18 1475.54 1561.18 Q1476.22 1561.18 1477.03 1561.04 Q1477.85 1560.91 1479.51 1560.33 Q1481.18 1559.72 1482.64 1558.12 Q1484.1 1556.53 1484.95 1554.01 Q1485.15 1553.03 1485.83 1553.06 Q1486.75 1553.06 1486.75 1553.88 Q1486.75 1554.49 1486.07 1555.88 Q1485.42 1557.24 1484.17 1558.87 Q1482.91 1560.5 1480.46 1561.72 Q1478.05 1562.95 1475.13 1562.95 Q1469.02 1562.95 1464.4 1558.33 Q1459.81 1553.67 1459.81 1546.85 M1465.65 1544.64 L1482.16 1544.64 Q1482.16 1543.18 1481.89 1541.55 Q1481.65 1539.92 1480.91 1537.67 Q1480.19 1535.4 1478.49 1533.97 Q1476.8 1532.55 1474.28 1532.55 Q1473.16 1532.55 1471.94 1533.02 Q1470.75 1533.5 1469.29 1534.65 Q1467.83 1535.81 1466.81 1538.42 Q1465.79 1541.04 1465.65 1544.64 Z" fill="#000000" fill-rule="nonzero" fill-opacity="1" /><path clip-path="url(#clip460)" d="M1490.99 1562.16 L1490.99 1560.02 Q1494.7 1560.02 1495.54 1559.58 Q1496.39 1559.11 1496.39 1556.87 L1496.39 1538.22 Q1496.39 1535.64 1495.48 1534.99 Q1494.59 1534.35 1490.99 1534.35 L1490.99 1532.17 L1500.78 1531.42 L1500.78 1538.73 Q1504.04 1531.42 1511.07 1531.42 Q1516.3 1531.42 1518.37 1534.01 Q1519.9 1535.74 1520.21 1537.67 Q1520.54 1539.61 1520.54 1544.64 L1520.54 1557.92 Q1520.61 1559.38 1521.73 1559.72 Q1522.85 1560.02 1525.98 1560.02 L1525.98 1562.16 Q1518.88 1561.96 1518.17 1561.96 Q1517.62 1561.96 1510.32 1562.16 L1510.32 1560.02 Q1514.02 1560.02 1514.87 1559.58 Q1515.76 1559.11 1515.76 1556.87 L1515.76 1540.66 Q1515.76 1537.13 1514.67 1535.06 Q1513.58 1532.95 1510.59 1532.95 Q1506.99 1532.95 1504.1 1535.98 Q1501.22 1539 1501.22 1544.09 L1501.22 1556.87 Q1501.22 1559.11 1502.07 1559.58 Q1502.95 1560.02 1506.62 1560.02 L1506.62 1562.16 Q1499.52 1561.96 1498.84 1561.96 Q1498.3 1561.96 1490.99 1562.16 Z" fill="#000000" fill-rule="nonzero" fill-opacity="1" /><path clip-path="url(#clip460)" d="M1526.73 1534.35 L1526.73 1532.82 Q1529.92 1532.68 1532.03 1530.44 Q1534.17 1528.16 1534.88 1525.38 Q1535.63 1522.59 1535.69 1519.37 L1537.43 1519.37 L1537.43 1532.17 L1547.38 1532.17 L1547.38 1534.35 L1537.43 1534.35 L1537.43 1553.67 Q1537.43 1561.18 1542.11 1561.18 Q1544.12 1561.18 1545.44 1559.14 Q1546.77 1557.07 1546.77 1553.4 L1546.77 1549.56 L1548.5 1549.56 L1548.5 1553.54 Q1548.5 1557.31 1546.77 1560.13 Q1545.04 1562.95 1541.6 1562.95 Q1540.35 1562.95 1539.09 1562.61 Q1537.87 1562.3 1536.24 1561.49 Q1534.64 1560.64 1533.62 1558.6 Q1532.64 1556.53 1532.64 1553.54 L1532.64 1534.35 L1526.73 1534.35 Z" fill="#000000" fill-rule="nonzero" fill-opacity="1" /><path clip-path="url(#clip460)" d="M1559.34 1561.04 Q1558.35 1559.92 1558.35 1558.46 Q1558.35 1557 1559.3 1555.91 Q1560.29 1554.79 1562.05 1554.79 Q1564.12 1554.79 1565.31 1556.8 Q1566.5 1558.77 1566.5 1562.1 Q1566.5 1565.7 1565.04 1569.03 Q1563.58 1572.39 1562.15 1573.99 Q1560.73 1575.58 1560.15 1575.58 Q1559.47 1575.58 1559.47 1574.83 Q1559.47 1574.56 1559.95 1574.05 Q1564.94 1568.69 1564.97 1562.1 Q1564.97 1561.04 1564.84 1561.04 L1564.67 1561.18 Q1563.48 1562.16 1562.05 1562.16 Q1560.32 1562.16 1559.34 1561.04 Z" fill="#000000" fill-rule="nonzero" fill-opacity="1" /><path clip-path="url(#clip460)" d="M1620.27 1520.81 Q1620.27 1523.74 1619.21 1527.03 Q1618.18 1530.28 1616.63 1533.08 Q1615.12 1535.88 1613.02 1538.75 Q1610.93 1541.62 1609.16 1543.65 Q1607.39 1545.68 1605.55 1547.51 Q1604.55 1548.51 1604.1 1549.19 Q1603.97 1549.38 1603.88 1550.89 Q1603.78 1552.37 1603.78 1552.92 Q1603.78 1561.52 1607.81 1561.52 Q1611.16 1561.52 1616.37 1556.37 Q1617.05 1555.76 1617.24 1555.76 Q1617.63 1555.76 1617.82 1556.05 Q1618.02 1556.34 1618.02 1556.56 Q1618.02 1556.98 1616.47 1558.4 Q1614.96 1559.81 1614.02 1560.46 Q1610.54 1562.97 1607.68 1562.97 Q1601.56 1562.97 1600.3 1552.86 Q1598.95 1554.21 1597.92 1555.11 Q1596.53 1556.5 1596.15 1556.82 Q1595.76 1557.14 1595.54 1557.14 Q1595.25 1557.14 1594.99 1556.85 Q1594.76 1556.56 1594.76 1556.3 Q1594.76 1556.11 1595.08 1555.63 L1600.14 1550.83 Q1600.14 1539.94 1605.36 1528.06 Q1605.71 1527.22 1606.23 1526.16 Q1606.74 1525.06 1607.94 1523.07 Q1609.13 1521.07 1610.32 1519.56 Q1611.54 1518.01 1613.18 1516.85 Q1614.83 1515.66 1616.37 1515.66 Q1620.27 1515.66 1620.27 1520.81 M1618.69 1520.55 Q1618.69 1517.11 1616.44 1517.11 Q1614.99 1517.11 1613.86 1518.59 Q1612.77 1520.07 1611.16 1523.32 Q1609.48 1526.77 1607.77 1532.66 Q1606.1 1538.53 1605.39 1541.75 Q1604.71 1544.97 1604.46 1546.42 Q1618.69 1531.6 1618.69 1520.55 Z" fill="#000000" fill-rule="nonzero" fill-opacity="1" /><polyline clip-path="url(#clip462)" style="stroke:#000000; stroke-linecap:round; stroke-linejoin:round; stroke-width:2; stroke-opacity:0.1; fill:none" points="262.759,1306.17 2352.76,1306.17 "/>
<polyline clip-path="url(#clip462)" style="stroke:#000000; stroke-linecap:round; stroke-linejoin:round; stroke-width:2; stroke-opacity:0.1; fill:none" points="262.759,1078.7 2352.76,1078.7 "/>
<polyline clip-path="url(#clip462)" style="stroke:#000000; stroke-linecap:round; stroke-linejoin:round; stroke-width:2; stroke-opacity:0.1; fill:none" points="262.759,851.221 2352.76,851.221 "/>
<polyline clip-path="url(#clip462)" style="stroke:#000000; stroke-linecap:round; stroke-linejoin:round; stroke-width:2; stroke-opacity:0.1; fill:none" points="262.759,623.746 2352.76,623.746 "/>
<polyline clip-path="url(#clip462)" style="stroke:#000000; stroke-linecap:round; stroke-linejoin:round; stroke-width:2; stroke-opacity:0.1; fill:none" points="262.759,396.271 2352.76,396.271 "/>
<polyline clip-path="url(#clip462)" style="stroke:#000000; stroke-linecap:round; stroke-linejoin:round; stroke-width:2; stroke-opacity:0.1; fill:none" points="262.759,168.796 2352.76,168.796 "/>
<polyline clip-path="url(#clip460)" style="stroke:#000000; stroke-linecap:round; stroke-linejoin:round; stroke-width:4; stroke-opacity:1; fill:none" points="262.759,1423.18 262.759,47.2441 "/>
<polyline clip-path="url(#clip460)" style="stroke:#000000; stroke-linecap:round; stroke-linejoin:round; stroke-width:4; stroke-opacity:1; fill:none" points="262.759,1306.17 281.657,1306.17 "/>
<polyline clip-path="url(#clip460)" style="stroke:#000000; stroke-linecap:round; stroke-linejoin:round; stroke-width:4; stroke-opacity:1; fill:none" points="262.759,1078.7 281.657,1078.7 "/>
<polyline clip-path="url(#clip460)" style="stroke:#000000; stroke-linecap:round; stroke-linejoin:round; stroke-width:4; stroke-opacity:1; fill:none" points="262.759,851.221 281.657,851.221 "/>
<polyline clip-path="url(#clip460)" style="stroke:#000000; stroke-linecap:round; stroke-linejoin:round; stroke-width:4; stroke-opacity:1; fill:none" points="262.759,623.746 281.657,623.746 "/>
<polyline clip-path="url(#clip460)" style="stroke:#000000; stroke-linecap:round; stroke-linejoin:round; stroke-width:4; stroke-opacity:1; fill:none" points="262.759,396.271 281.657,396.271 "/>
<polyline clip-path="url(#clip460)" style="stroke:#000000; stroke-linecap:round; stroke-linejoin:round; stroke-width:4; stroke-opacity:1; fill:none" points="262.759,168.796 281.657,168.796 "/>
<path clip-path="url(#clip460)" d="M114.952 1307.27 Q114.952 1299.83 116.829 1295.78 Q119.448 1289.76 125.624 1289.76 Q126.933 1289.76 128.292 1290.13 Q129.675 1290.47 131.404 1291.83 Q133.158 1293.19 134.22 1295.41 Q136.246 1299.71 136.246 1307.27 Q136.246 1314.66 134.369 1318.68 Q131.627 1324.56 125.574 1324.56 Q123.302 1324.56 120.979 1323.4 Q118.682 1322.24 117.225 1319.45 Q114.952 1315.27 114.952 1307.27 M119.151 1306.65 Q119.151 1314.29 119.695 1317.32 Q120.312 1320.61 121.992 1322.04 Q123.697 1323.45 125.574 1323.45 Q127.6 1323.45 129.28 1321.94 Q130.984 1320.41 131.503 1317.13 Q132.071 1313.89 132.047 1306.65 Q132.047 1299.61 131.553 1296.8 Q130.886 1293.51 129.107 1292.2 Q127.353 1290.87 125.574 1290.87 Q124.907 1290.87 124.191 1291.06 Q123.499 1291.26 122.486 1291.83 Q121.474 1292.4 120.683 1293.81 Q119.917 1295.22 119.547 1297.34 Q119.151 1300.08 119.151 1306.65 Z" fill="#000000" fill-rule="nonzero" fill-opacity="1" /><path clip-path="url(#clip460)" d="M143.336 1322.64 Q142.57 1321.82 142.57 1320.76 Q142.57 1319.7 143.336 1318.93 Q144.102 1318.14 145.263 1318.14 Q146.375 1318.14 147.116 1318.88 Q147.881 1319.6 147.881 1320.78 Q147.881 1321.94 147.066 1322.71 Q146.276 1323.45 145.263 1323.45 Q144.102 1323.45 143.336 1322.64 Z" fill="#000000" fill-rule="nonzero" fill-opacity="1" /><path clip-path="url(#clip460)" d="M154.304 1307.27 Q154.304 1299.83 156.182 1295.78 Q158.8 1289.76 164.976 1289.76 Q166.285 1289.76 167.644 1290.13 Q169.028 1290.47 170.757 1291.83 Q172.511 1293.19 173.573 1295.41 Q175.599 1299.71 175.599 1307.27 Q175.599 1314.66 173.721 1318.68 Q170.979 1324.56 164.927 1324.56 Q162.654 1324.56 160.332 1323.4 Q158.035 1322.24 156.577 1319.45 Q154.304 1315.27 154.304 1307.27 M158.504 1306.65 Q158.504 1314.29 159.047 1317.32 Q159.665 1320.61 161.345 1322.04 Q163.049 1323.45 164.927 1323.45 Q166.952 1323.45 168.632 1321.94 Q170.337 1320.41 170.856 1317.13 Q171.424 1313.89 171.399 1306.65 Q171.399 1299.61 170.905 1296.8 Q170.238 1293.51 168.459 1292.2 Q166.705 1290.87 164.927 1290.87 Q164.26 1290.87 163.543 1291.06 Q162.852 1291.26 161.839 1291.83 Q160.826 1292.4 160.035 1293.81 Q159.27 1295.22 158.899 1297.34 Q158.504 1300.08 158.504 1306.65 Z" fill="#000000" fill-rule="nonzero" fill-opacity="1" /><path clip-path="url(#clip460)" d="M179.601 1307.27 Q179.601 1299.83 181.478 1295.78 Q184.097 1289.76 190.272 1289.76 Q191.582 1289.76 192.94 1290.13 Q194.324 1290.47 196.053 1291.83 Q197.807 1293.19 198.869 1295.41 Q200.895 1299.71 200.895 1307.27 Q200.895 1314.66 199.017 1318.68 Q196.275 1324.56 190.223 1324.56 Q187.95 1324.56 185.628 1323.4 Q183.331 1322.24 181.873 1319.45 Q179.601 1315.27 179.601 1307.27 M183.8 1306.65 Q183.8 1314.29 184.344 1317.32 Q184.961 1320.61 186.641 1322.04 Q188.346 1323.45 190.223 1323.45 Q192.249 1323.45 193.928 1321.94 Q195.633 1320.41 196.152 1317.13 Q196.72 1313.89 196.695 1306.65 Q196.695 1299.61 196.201 1296.8 Q195.534 1293.51 193.756 1292.2 Q192.002 1290.87 190.223 1290.87 Q189.556 1290.87 188.84 1291.06 Q188.148 1291.26 187.135 1291.83 Q186.122 1292.4 185.332 1293.81 Q184.566 1295.22 184.195 1297.34 Q183.8 1300.08 183.8 1306.65 Z" fill="#000000" fill-rule="nonzero" fill-opacity="1" /><path clip-path="url(#clip460)" d="M204.329 1315.1 L204.329 1313.54 L219.867 1289.81 Q220.262 1289.19 220.88 1289.21 Q221.448 1289.21 221.572 1289.43 Q221.695 1289.66 221.695 1290.52 L221.695 1313.54 L226.759 1313.54 L226.759 1315.1 L221.695 1315.1 L221.695 1319.5 Q221.695 1320.96 222.288 1321.43 Q222.906 1321.89 225.524 1321.89 L226.586 1321.89 L226.586 1323.45 Q224.511 1323.3 219.719 1323.3 Q214.951 1323.3 212.876 1323.45 L212.876 1321.89 L213.938 1321.89 Q216.557 1321.89 217.174 1321.45 Q217.792 1320.98 217.792 1319.5 L217.792 1315.1 L204.329 1315.1 M205.761 1313.54 L218.088 1313.54 L218.088 1294.67 L205.761 1313.54 Z" fill="#000000" fill-rule="nonzero" fill-opacity="1" /><path clip-path="url(#clip460)" d="M116.064 1079.8 Q116.064 1072.36 117.941 1068.31 Q120.56 1062.28 126.735 1062.28 Q128.045 1062.28 129.403 1062.65 Q130.787 1063 132.516 1064.36 Q134.27 1065.71 135.332 1067.94 Q137.358 1072.24 137.358 1079.8 Q137.358 1087.18 135.48 1091.21 Q132.738 1097.09 126.686 1097.09 Q124.413 1097.09 122.091 1095.93 Q119.794 1094.77 118.336 1091.97 Q116.064 1087.8 116.064 1079.8 M120.263 1079.18 Q120.263 1086.81 120.807 1089.85 Q121.424 1093.14 123.104 1094.57 Q124.808 1095.98 126.686 1095.98 Q128.712 1095.98 130.391 1094.47 Q132.096 1092.94 132.615 1089.65 Q133.183 1086.42 133.158 1079.18 Q133.158 1072.14 132.664 1069.32 Q131.997 1066.04 130.219 1064.73 Q128.465 1063.39 126.686 1063.39 Q126.019 1063.39 125.303 1063.59 Q124.611 1063.79 123.598 1064.36 Q122.585 1064.92 121.795 1066.33 Q121.029 1067.74 120.658 1069.86 Q120.263 1072.61 120.263 1079.18 Z" fill="#000000" fill-rule="nonzero" fill-opacity="1" /><path clip-path="url(#clip460)" d="M144.448 1095.16 Q143.682 1094.35 143.682 1093.28 Q143.682 1092.22 144.448 1091.46 Q145.213 1090.66 146.375 1090.66 Q147.486 1090.66 148.227 1091.41 Q148.993 1092.12 148.993 1093.31 Q148.993 1094.47 148.178 1095.23 Q147.387 1095.98 146.375 1095.98 Q145.213 1095.98 144.448 1095.16 Z" fill="#000000" fill-rule="nonzero" fill-opacity="1" /><path clip-path="url(#clip460)" d="M155.416 1079.8 Q155.416 1072.36 157.293 1068.31 Q159.912 1062.28 166.088 1062.28 Q167.397 1062.28 168.756 1062.65 Q170.139 1063 171.868 1064.36 Q173.622 1065.71 174.685 1067.94 Q176.71 1072.24 176.71 1079.8 Q176.71 1087.18 174.833 1091.21 Q172.091 1097.09 166.038 1097.09 Q163.766 1097.09 161.444 1095.93 Q159.146 1094.77 157.689 1091.97 Q155.416 1087.8 155.416 1079.8 M159.616 1079.18 Q159.616 1086.81 160.159 1089.85 Q160.777 1093.14 162.456 1094.57 Q164.161 1095.98 166.038 1095.98 Q168.064 1095.98 169.744 1094.47 Q171.448 1092.94 171.967 1089.65 Q172.535 1086.42 172.511 1079.18 Q172.511 1072.14 172.017 1069.32 Q171.35 1066.04 169.571 1064.73 Q167.817 1063.39 166.038 1063.39 Q165.371 1063.39 164.655 1063.59 Q163.963 1063.79 162.95 1064.36 Q161.938 1064.92 161.147 1066.33 Q160.381 1067.74 160.011 1069.86 Q159.616 1072.61 159.616 1079.18 Z" fill="#000000" fill-rule="nonzero" fill-opacity="1" /><path clip-path="url(#clip460)" d="M180.712 1079.8 Q180.712 1072.36 182.59 1068.31 Q185.208 1062.28 191.384 1062.28 Q192.693 1062.28 194.052 1062.65 Q195.435 1063 197.165 1064.36 Q198.919 1065.71 199.981 1067.94 Q202.006 1072.24 202.006 1079.8 Q202.006 1087.18 200.129 1091.21 Q197.387 1097.09 191.335 1097.09 Q189.062 1097.09 186.74 1095.93 Q184.442 1094.77 182.985 1091.97 Q180.712 1087.8 180.712 1079.8 M184.912 1079.18 Q184.912 1086.81 185.455 1089.85 Q186.073 1093.14 187.753 1094.57 Q189.457 1095.98 191.335 1095.98 Q193.36 1095.98 195.04 1094.47 Q196.745 1092.94 197.263 1089.65 Q197.832 1086.42 197.807 1079.18 Q197.807 1072.14 197.313 1069.32 Q196.646 1066.04 194.867 1064.73 Q193.113 1063.39 191.335 1063.39 Q190.668 1063.39 189.951 1063.59 Q189.26 1063.79 188.247 1064.36 Q187.234 1064.92 186.443 1066.33 Q185.678 1067.74 185.307 1069.86 Q184.912 1072.61 184.912 1079.18 Z" fill="#000000" fill-rule="nonzero" fill-opacity="1" /><path clip-path="url(#clip460)" d="M206.552 1087.82 Q206.552 1086.32 207.367 1085.75 Q208.182 1085.16 209.047 1085.16 Q210.208 1085.16 210.875 1085.9 Q211.567 1086.61 211.567 1087.63 Q211.567 1088.64 210.875 1089.38 Q210.208 1090.1 209.047 1090.1 Q208.479 1090.1 208.182 1090 Q208.849 1092.32 210.875 1094 Q212.925 1095.68 215.618 1095.68 Q219.002 1095.68 221.028 1092.39 Q222.239 1090.27 222.239 1085.45 Q222.239 1081.2 221.325 1079.08 Q219.916 1075.84 217.026 1075.84 Q212.925 1075.84 210.504 1079.38 Q210.208 1079.82 209.862 1079.84 Q209.368 1079.84 209.245 1079.57 Q209.146 1079.28 209.146 1078.51 L209.146 1063.54 Q209.146 1062.33 209.64 1062.33 Q209.837 1062.33 210.257 1062.48 Q213.444 1063.89 216.977 1063.91 Q220.608 1063.91 223.869 1062.43 Q224.116 1062.28 224.264 1062.28 Q224.758 1062.28 224.783 1062.85 Q224.783 1063.05 224.363 1063.64 Q223.968 1064.21 223.103 1064.97 Q222.239 1065.71 221.127 1066.43 Q220.015 1067.15 218.385 1067.64 Q216.779 1068.11 215 1068.11 Q212.876 1068.11 210.702 1067.44 L210.702 1077.3 Q213.321 1074.73 217.125 1074.73 Q221.176 1074.73 223.968 1077.99 Q226.759 1081.25 226.759 1085.8 Q226.759 1090.57 223.449 1093.83 Q220.163 1097.09 215.717 1097.09 Q211.666 1097.09 209.096 1094.2 Q206.552 1091.31 206.552 1087.82 Z" fill="#000000" fill-rule="nonzero" fill-opacity="1" /><path clip-path="url(#clip460)" d="M115.668 852.32 Q115.668 844.885 117.546 840.833 Q120.164 834.806 126.34 834.806 Q127.649 834.806 129.008 835.176 Q130.391 835.522 132.121 836.881 Q133.875 838.24 134.937 840.463 Q136.963 844.761 136.963 852.32 Q136.963 859.707 135.085 863.733 Q132.343 869.613 126.291 869.613 Q124.018 869.613 121.696 868.452 Q119.398 867.291 117.941 864.499 Q115.668 860.324 115.668 852.32 M119.868 851.703 Q119.868 859.336 120.411 862.375 Q121.029 865.66 122.709 867.093 Q124.413 868.501 126.291 868.501 Q128.316 868.501 129.996 866.994 Q131.701 865.463 132.219 862.177 Q132.788 858.941 132.763 851.703 Q132.763 844.662 132.269 841.846 Q131.602 838.561 129.823 837.251 Q128.069 835.917 126.291 835.917 Q125.624 835.917 124.907 836.115 Q124.216 836.313 123.203 836.881 Q122.19 837.449 121.399 838.857 Q120.634 840.265 120.263 842.39 Q119.868 845.132 119.868 851.703 Z" fill="#000000" fill-rule="nonzero" fill-opacity="1" /><path clip-path="url(#clip460)" d="M144.052 867.686 Q143.287 866.871 143.287 865.808 Q143.287 864.746 144.052 863.98 Q144.818 863.19 145.979 863.19 Q147.091 863.19 147.832 863.931 Q148.598 864.647 148.598 865.833 Q148.598 866.994 147.783 867.76 Q146.992 868.501 145.979 868.501 Q144.818 868.501 144.052 867.686 Z" fill="#000000" fill-rule="nonzero" fill-opacity="1" /><path clip-path="url(#clip460)" d="M155.021 852.32 Q155.021 844.885 156.898 840.833 Q159.517 834.806 165.693 834.806 Q167.002 834.806 168.361 835.176 Q169.744 835.522 171.473 836.881 Q173.227 838.24 174.289 840.463 Q176.315 844.761 176.315 852.32 Q176.315 859.707 174.438 863.733 Q171.695 869.613 165.643 869.613 Q163.37 869.613 161.048 868.452 Q158.751 867.291 157.293 864.499 Q155.021 860.324 155.021 852.32 M159.22 851.703 Q159.22 859.336 159.764 862.375 Q160.381 865.66 162.061 867.093 Q163.766 868.501 165.643 868.501 Q167.669 868.501 169.349 866.994 Q171.053 865.463 171.572 862.177 Q172.14 858.941 172.115 851.703 Q172.115 844.662 171.621 841.846 Q170.954 838.561 169.176 837.251 Q167.422 835.917 165.643 835.917 Q164.976 835.917 164.26 836.115 Q163.568 836.313 162.555 836.881 Q161.542 837.449 160.752 838.857 Q159.986 840.265 159.616 842.39 Q159.22 845.132 159.22 851.703 Z" fill="#000000" fill-rule="nonzero" fill-opacity="1" /><path clip-path="url(#clip460)" d="M180.317 852.32 Q180.317 844.885 182.194 840.833 Q184.813 834.806 190.989 834.806 Q192.298 834.806 193.657 835.176 Q195.04 835.522 196.769 836.881 Q198.523 838.24 199.586 840.463 Q201.611 844.761 201.611 852.32 Q201.611 859.707 199.734 863.733 Q196.992 869.613 190.939 869.613 Q188.667 869.613 186.345 868.452 Q184.047 867.291 182.59 864.499 Q180.317 860.324 180.317 852.32 M184.517 851.703 Q184.517 859.336 185.06 862.375 Q185.678 865.66 187.357 867.093 Q189.062 868.501 190.939 868.501 Q192.965 868.501 194.645 866.994 Q196.349 865.463 196.868 862.177 Q197.436 858.941 197.412 851.703 Q197.412 844.662 196.918 841.846 Q196.251 838.561 194.472 837.251 Q192.718 835.917 190.939 835.917 Q190.272 835.917 189.556 836.115 Q188.864 836.313 187.851 836.881 Q186.839 837.449 186.048 838.857 Q185.282 840.265 184.912 842.39 Q184.517 845.132 184.517 851.703 Z" fill="#000000" fill-rule="nonzero" fill-opacity="1" /><path clip-path="url(#clip460)" d="M205.761 852.518 Q205.761 844.564 209.813 839.697 Q213.864 834.806 219.077 834.806 Q222.115 834.806 223.795 836.362 Q225.499 837.894 225.499 840.265 Q225.499 841.574 224.734 842.143 Q223.968 842.711 223.177 842.711 Q222.263 842.711 221.547 842.093 Q220.83 841.476 220.83 840.364 Q220.83 838.091 223.622 838.091 Q222.313 836.066 219.175 836.066 Q218.212 836.066 217.224 836.362 Q216.236 836.634 214.951 837.573 Q213.666 838.511 212.678 839.993 Q211.69 841.476 210.999 844.267 Q210.307 847.059 210.307 850.69 L210.307 851.9 Q212.382 846.886 216.631 846.91 Q220.88 846.91 223.82 850.147 Q226.759 853.383 226.759 858.175 Q226.759 863.091 223.696 866.352 Q220.633 869.613 216.334 869.613 Q214.408 869.613 212.654 868.798 Q210.924 868.007 209.294 866.179 Q207.688 864.351 206.725 860.843 Q205.761 857.335 205.761 852.518 M210.406 857.063 Q210.406 862.029 211.32 864.4 Q211.468 864.796 211.789 865.339 Q212.135 865.883 212.703 866.599 Q213.296 867.291 214.259 867.76 Q215.223 868.205 216.334 868.205 Q219.719 868.205 221.349 864.919 Q222.214 863.091 222.214 858.126 Q222.214 853.062 221.3 851.209 Q219.744 848.071 216.581 848.071 Q214.457 848.071 212.975 849.529 Q211.517 850.986 210.949 852.938 Q210.406 854.89 210.406 857.063 Z" fill="#000000" fill-rule="nonzero" fill-opacity="1" /><path clip-path="url(#clip460)" d="M114.26 624.845 Q114.26 617.41 116.138 613.358 Q118.756 607.331 124.932 607.331 Q126.241 607.331 127.6 607.701 Q128.983 608.047 130.713 609.406 Q132.467 610.765 133.529 612.988 Q135.554 617.286 135.554 624.845 Q135.554 632.232 133.677 636.258 Q130.935 642.138 124.883 642.138 Q122.61 642.138 120.288 640.977 Q117.99 639.816 116.533 637.024 Q114.26 632.849 114.26 624.845 M118.46 624.228 Q118.46 631.861 119.003 634.9 Q119.621 638.185 121.301 639.618 Q123.005 641.026 124.883 641.026 Q126.908 641.026 128.588 639.519 Q130.293 637.988 130.811 634.702 Q131.38 631.466 131.355 624.228 Q131.355 617.187 130.861 614.371 Q130.194 611.086 128.415 609.776 Q126.661 608.442 124.883 608.442 Q124.216 608.442 123.499 608.64 Q122.808 608.838 121.795 609.406 Q120.782 609.974 119.991 611.382 Q119.226 612.79 118.855 614.915 Q118.46 617.657 118.46 624.228 Z" fill="#000000" fill-rule="nonzero" fill-opacity="1" /><path clip-path="url(#clip460)" d="M142.644 640.211 Q141.879 639.396 141.879 638.334 Q141.879 637.271 142.644 636.505 Q143.41 635.715 144.571 635.715 Q145.683 635.715 146.424 636.456 Q147.19 637.172 147.19 638.358 Q147.19 639.519 146.375 640.285 Q145.584 641.026 144.571 641.026 Q143.41 641.026 142.644 640.211 Z" fill="#000000" fill-rule="nonzero" fill-opacity="1" /><path clip-path="url(#clip460)" d="M153.613 624.845 Q153.613 617.41 155.49 613.358 Q158.109 607.331 164.284 607.331 Q165.594 607.331 166.952 607.701 Q168.336 608.047 170.065 609.406 Q171.819 610.765 172.881 612.988 Q174.907 617.286 174.907 624.845 Q174.907 632.232 173.029 636.258 Q170.287 642.138 164.235 642.138 Q161.962 642.138 159.64 640.977 Q157.343 639.816 155.885 637.024 Q153.613 632.849 153.613 624.845 M157.812 624.228 Q157.812 631.861 158.356 634.9 Q158.973 638.185 160.653 639.618 Q162.358 641.026 164.235 641.026 Q166.261 641.026 167.941 639.519 Q169.645 637.988 170.164 634.702 Q170.732 631.466 170.707 624.228 Q170.707 617.187 170.213 614.371 Q169.546 611.086 167.768 609.776 Q166.014 608.442 164.235 608.442 Q163.568 608.442 162.852 608.64 Q162.16 608.838 161.147 609.406 Q160.134 609.974 159.344 611.382 Q158.578 612.79 158.207 614.915 Q157.812 617.657 157.812 624.228 Z" fill="#000000" fill-rule="nonzero" fill-opacity="1" /><path clip-path="url(#clip460)" d="M178.909 624.845 Q178.909 617.41 180.786 613.358 Q183.405 607.331 189.581 607.331 Q190.89 607.331 192.249 607.701 Q193.632 608.047 195.361 609.406 Q197.115 610.765 198.177 612.988 Q200.203 617.286 200.203 624.845 Q200.203 632.232 198.326 636.258 Q195.584 642.138 189.531 642.138 Q187.259 642.138 184.936 640.977 Q182.639 639.816 181.182 637.024 Q178.909 632.849 178.909 624.845 M183.108 624.228 Q183.108 631.861 183.652 634.9 Q184.269 638.185 185.949 639.618 Q187.654 641.026 189.531 641.026 Q191.557 641.026 193.237 639.519 Q194.941 637.988 195.46 634.702 Q196.028 631.466 196.004 624.228 Q196.004 617.187 195.51 614.371 Q194.843 611.086 193.064 609.776 Q191.31 608.442 189.531 608.442 Q188.864 608.442 188.148 608.64 Q187.456 608.838 186.443 609.406 Q185.431 609.974 184.64 611.382 Q183.874 612.79 183.504 614.915 Q183.108 617.657 183.108 624.228 Z" fill="#000000" fill-rule="nonzero" fill-opacity="1" /><path clip-path="url(#clip460)" d="M205.07 617.237 L206.725 606.837 L207.985 606.837 Q208.133 607.454 208.38 607.726 Q208.652 607.998 210.084 608.22 Q211.542 608.442 214.482 608.442 L226.759 608.442 Q226.759 609.604 226.315 610.221 L219.472 619.831 Q217.298 622.869 216.334 628.477 Q215.766 632.232 215.791 636.777 L215.791 639.346 Q215.791 642.138 213.444 642.138 Q211.122 642.138 211.122 639.346 Q211.122 629.687 217.347 620.325 Q218.014 619.361 220.46 615.928 Q222.93 612.494 223.029 612.346 L212.555 612.346 Q207.96 612.346 207.589 612.642 Q207.095 613.087 206.33 617.237 L205.07 617.237 Z" fill="#000000" fill-rule="nonzero" fill-opacity="1" /><path clip-path="url(#clip460)" d="M115.668 397.371 Q115.668 389.935 117.546 385.883 Q120.164 379.856 126.34 379.856 Q127.649 379.856 129.008 380.226 Q130.391 380.572 132.121 381.931 Q133.875 383.29 134.937 385.513 Q136.963 389.811 136.963 397.371 Q136.963 404.757 135.085 408.783 Q132.343 414.663 126.291 414.663 Q124.018 414.663 121.696 413.502 Q119.398 412.341 117.941 409.549 Q115.668 405.374 115.668 397.371 M119.868 396.753 Q119.868 404.386 120.411 407.425 Q121.029 410.71 122.709 412.143 Q124.413 413.551 126.291 413.551 Q128.316 413.551 129.996 412.044 Q131.701 410.513 132.219 407.227 Q132.788 403.991 132.763 396.753 Q132.763 389.712 132.269 386.896 Q131.602 383.611 129.823 382.301 Q128.069 380.968 126.291 380.968 Q125.624 380.968 124.907 381.165 Q124.216 381.363 123.203 381.931 Q122.19 382.499 121.399 383.907 Q120.634 385.315 120.263 387.44 Q119.868 390.182 119.868 396.753 Z" fill="#000000" fill-rule="nonzero" fill-opacity="1" /><path clip-path="url(#clip460)" d="M144.052 412.736 Q143.287 411.921 143.287 410.859 Q143.287 409.796 144.052 409.031 Q144.818 408.24 145.979 408.24 Q147.091 408.24 147.832 408.981 Q148.598 409.698 148.598 410.883 Q148.598 412.044 147.783 412.81 Q146.992 413.551 145.979 413.551 Q144.818 413.551 144.052 412.736 Z" fill="#000000" fill-rule="nonzero" fill-opacity="1" /><path clip-path="url(#clip460)" d="M155.021 397.371 Q155.021 389.935 156.898 385.883 Q159.517 379.856 165.693 379.856 Q167.002 379.856 168.361 380.226 Q169.744 380.572 171.473 381.931 Q173.227 383.29 174.289 385.513 Q176.315 389.811 176.315 397.371 Q176.315 404.757 174.438 408.783 Q171.695 414.663 165.643 414.663 Q163.37 414.663 161.048 413.502 Q158.751 412.341 157.293 409.549 Q155.021 405.374 155.021 397.371 M159.22 396.753 Q159.22 404.386 159.764 407.425 Q160.381 410.71 162.061 412.143 Q163.766 413.551 165.643 413.551 Q167.669 413.551 169.349 412.044 Q171.053 410.513 171.572 407.227 Q172.14 403.991 172.115 396.753 Q172.115 389.712 171.621 386.896 Q170.954 383.611 169.176 382.301 Q167.422 380.968 165.643 380.968 Q164.976 380.968 164.26 381.165 Q163.568 381.363 162.555 381.931 Q161.542 382.499 160.752 383.907 Q159.986 385.315 159.616 387.44 Q159.22 390.182 159.22 396.753 Z" fill="#000000" fill-rule="nonzero" fill-opacity="1" /><path clip-path="url(#clip460)" d="M180.317 397.371 Q180.317 389.935 182.194 385.883 Q184.813 379.856 190.989 379.856 Q192.298 379.856 193.657 380.226 Q195.04 380.572 196.769 381.931 Q198.523 383.29 199.586 385.513 Q201.611 389.811 201.611 397.371 Q201.611 404.757 199.734 408.783 Q196.992 414.663 190.939 414.663 Q188.667 414.663 186.345 413.502 Q184.047 412.341 182.59 409.549 Q180.317 405.374 180.317 397.371 M184.517 396.753 Q184.517 404.386 185.06 407.425 Q185.678 410.71 187.357 412.143 Q189.062 413.551 190.939 413.551 Q192.965 413.551 194.645 412.044 Q196.349 410.513 196.868 407.227 Q197.436 403.991 197.412 396.753 Q197.412 389.712 196.918 386.896 Q196.251 383.611 194.472 382.301 Q192.718 380.968 190.939 380.968 Q190.272 380.968 189.556 381.165 Q188.864 381.363 187.851 381.931 Q186.839 382.499 186.048 383.907 Q185.282 385.315 184.912 387.44 Q184.517 390.182 184.517 396.753 Z" fill="#000000" fill-rule="nonzero" fill-opacity="1" /><path clip-path="url(#clip460)" d="M205.761 405.918 Q205.761 400.261 213.049 396.605 Q209.912 394.48 209.343 393.863 Q207.12 391.392 207.12 388.304 Q207.12 384.772 209.788 382.326 Q212.481 379.856 216.285 379.856 Q219.916 379.856 222.658 381.956 Q225.401 384.055 225.401 387.39 Q225.401 392.084 219.274 395.246 Q223.325 397.766 224.289 398.828 Q226.759 401.57 226.759 405.053 Q226.759 409.105 223.647 411.896 Q220.534 414.663 216.236 414.663 Q212.036 414.663 208.899 412.217 Q205.761 409.772 205.761 405.918 M208.281 405.918 Q208.281 409.055 210.628 411.155 Q212.999 413.255 216.285 413.255 Q219.472 413.255 221.843 411.427 Q224.24 409.599 224.24 406.881 Q224.24 405.819 223.869 404.905 Q223.523 403.991 222.807 403.275 Q222.115 402.534 221.67 402.212 Q221.25 401.867 220.435 401.298 L214.21 397.371 Q208.281 400.656 208.281 405.918 M209.343 386.328 Q209.343 388.749 211.888 390.429 L218.162 394.48 Q223.177 391.541 223.177 387.39 Q223.177 384.698 221.127 382.919 Q219.077 381.116 216.236 381.116 Q213.444 381.116 211.394 382.598 Q209.343 384.055 209.343 386.328 Z" fill="#000000" fill-rule="nonzero" fill-opacity="1" /><path clip-path="url(#clip460)" d="M115.668 169.896 Q115.668 162.46 117.546 158.409 Q120.164 152.381 126.34 152.381 Q127.649 152.381 129.008 152.751 Q130.391 153.097 132.121 154.456 Q133.875 155.815 134.937 158.038 Q136.963 162.336 136.963 169.896 Q136.963 177.282 135.085 181.309 Q132.343 187.188 126.291 187.188 Q124.018 187.188 121.696 186.027 Q119.398 184.866 117.941 182.074 Q115.668 177.899 115.668 169.896 M119.868 169.278 Q119.868 176.911 120.411 179.95 Q121.029 183.235 122.709 184.668 Q124.413 186.076 126.291 186.076 Q128.316 186.076 129.996 184.569 Q131.701 183.038 132.219 179.752 Q132.788 176.516 132.763 169.278 Q132.763 162.238 132.269 159.421 Q131.602 156.136 129.823 154.827 Q128.069 153.493 126.291 153.493 Q125.624 153.493 124.907 153.69 Q124.216 153.888 123.203 154.456 Q122.19 155.024 121.399 156.432 Q120.634 157.84 120.263 159.965 Q119.868 162.707 119.868 169.278 Z" fill="#000000" fill-rule="nonzero" fill-opacity="1" /><path clip-path="url(#clip460)" d="M144.052 185.261 Q143.287 184.446 143.287 183.384 Q143.287 182.321 144.052 181.556 Q144.818 180.765 145.979 180.765 Q147.091 180.765 147.832 181.506 Q148.598 182.223 148.598 183.408 Q148.598 184.569 147.783 185.335 Q146.992 186.076 145.979 186.076 Q144.818 186.076 144.052 185.261 Z" fill="#000000" fill-rule="nonzero" fill-opacity="1" /><path clip-path="url(#clip460)" d="M155.021 169.896 Q155.021 162.46 156.898 158.409 Q159.517 152.381 165.693 152.381 Q167.002 152.381 168.361 152.751 Q169.744 153.097 171.473 154.456 Q173.227 155.815 174.289 158.038 Q176.315 162.336 176.315 169.896 Q176.315 177.282 174.438 181.309 Q171.695 187.188 165.643 187.188 Q163.37 187.188 161.048 186.027 Q158.751 184.866 157.293 182.074 Q155.021 177.899 155.021 169.896 M159.22 169.278 Q159.22 176.911 159.764 179.95 Q160.381 183.235 162.061 184.668 Q163.766 186.076 165.643 186.076 Q167.669 186.076 169.349 184.569 Q171.053 183.038 171.572 179.752 Q172.14 176.516 172.115 169.278 Q172.115 162.238 171.621 159.421 Q170.954 156.136 169.176 154.827 Q167.422 153.493 165.643 153.493 Q164.976 153.493 164.26 153.69 Q163.568 153.888 162.555 154.456 Q161.542 155.024 160.752 156.432 Q159.986 157.84 159.616 159.965 Q159.22 162.707 159.22 169.278 Z" fill="#000000" fill-rule="nonzero" fill-opacity="1" /><path clip-path="url(#clip460)" d="M180.317 169.896 Q180.317 162.46 182.194 158.409 Q184.813 152.381 190.989 152.381 Q192.298 152.381 193.657 152.751 Q195.04 153.097 196.769 154.456 Q198.523 155.815 199.586 158.038 Q201.611 162.336 201.611 169.896 Q201.611 177.282 199.734 181.309 Q196.992 187.188 190.939 187.188 Q188.667 187.188 186.345 186.027 Q184.047 184.866 182.59 182.074 Q180.317 177.899 180.317 169.896 M184.517 169.278 Q184.517 176.911 185.06 179.95 Q185.678 183.235 187.357 184.668 Q189.062 186.076 190.939 186.076 Q192.965 186.076 194.645 184.569 Q196.349 183.038 196.868 179.752 Q197.436 176.516 197.412 169.278 Q197.412 162.238 196.918 159.421 Q196.251 156.136 194.472 154.827 Q192.718 153.493 190.939 153.493 Q190.272 153.493 189.556 153.69 Q188.864 153.888 187.851 154.456 Q186.839 155.024 186.048 156.432 Q185.282 157.84 184.912 159.965 Q184.517 162.707 184.517 169.278 Z" fill="#000000" fill-rule="nonzero" fill-opacity="1" /><path clip-path="url(#clip460)" d="M205.761 163.769 Q205.761 161.076 206.552 159.248 Q207.342 157.396 208.998 155.568 Q212.036 152.381 216.433 152.381 Q218.311 152.381 219.966 153.171 Q221.646 153.962 223.227 155.765 Q224.832 157.544 225.796 161.076 Q226.759 164.584 226.759 169.426 Q226.759 177.257 222.955 182.223 Q219.175 187.188 214.062 187.188 Q210.826 187.188 208.923 185.73 Q207.021 184.248 207.021 181.729 Q207.021 180.419 207.762 179.876 Q208.503 179.308 209.343 179.308 Q210.257 179.308 210.974 179.925 Q211.69 180.518 211.69 181.63 Q211.69 182.544 211.097 183.26 Q210.529 183.952 209.047 183.952 Q210.504 185.78 214.012 185.78 Q215.272 185.78 216.532 185.212 Q217.792 184.619 219.151 183.211 Q220.534 181.778 221.374 178.789 Q222.214 175.8 222.214 171.6 L222.214 169.994 Q220.188 175.059 215.89 175.059 Q211.641 175.059 208.701 171.798 Q205.761 168.537 205.761 163.769 M210.307 163.819 Q210.307 168.833 211.221 170.686 Q212.777 173.873 215.939 173.873 Q219.027 173.873 220.559 171.131 Q222.115 168.364 222.115 164.782 Q222.115 159.817 221.3 157.643 Q219.793 153.641 216.433 153.641 Q213.098 153.641 211.369 156.828 Q210.307 158.705 210.307 163.819 Z" fill="#000000" fill-rule="nonzero" fill-opacity="1" /><path clip-path="url(#clip460)" d="M16.2797 728.147 L33.0911 732.301 Q34.1539 732.591 34.2828 732.784 Q34.4116 732.945 34.4116 733.461 Q34.4116 734.459 33.7353 734.459 Q33.6709 734.459 32.8335 734.362 Q31.9639 734.266 30.3859 734.266 Q24.5566 734.266 21.1106 737.1 Q17.6645 739.902 17.6645 744.894 Q17.6645 749.209 19.8545 753.557 Q22.0445 757.873 25.6194 760.964 Q28.3247 763.283 31.7385 764.99 Q35.1523 766.665 38.2763 767.47 Q41.4003 768.243 43.7513 768.597 Q46.1023 768.951 47.8092 768.951 Q50.2891 768.951 52.3825 768.436 Q54.4758 767.889 55.9573 766.922 Q57.4066 765.956 58.5338 764.732 Q59.6288 763.476 60.2729 762.027 Q60.917 760.546 61.2391 759.064 Q61.5289 757.583 61.5289 756.037 Q61.5289 749.821 56.698 743.895 Q52.7367 739.193 46.2633 737.229 Q45.6192 737.068 45.6192 736.391 Q45.6192 735.586 46.2633 735.586 Q46.3922 735.586 47.0363 735.747 Q47.6482 735.908 48.9042 736.391 Q50.128 736.874 51.5129 737.615 Q52.8977 738.356 54.6369 739.741 Q56.376 741.126 57.8897 742.832 Q60.4017 745.731 61.9798 749.402 Q63.5579 753.074 63.5579 757.1 Q63.5579 762.124 61.3357 766.182 Q59.1135 770.24 54.9589 772.623 Q50.8044 774.974 45.4904 774.974 Q39.8866 774.974 34.3794 772.397 Q28.8722 769.821 24.782 765.731 Q20.6919 761.641 18.1476 756.23 Q15.6034 750.82 15.6034 745.409 Q15.6034 743.348 16.1509 741.512 Q16.6984 739.676 17.3747 738.581 Q18.051 737.454 19.0494 736.456 Q20.0156 735.457 20.4664 735.135 Q20.9173 734.781 21.4648 734.459 L16.4085 729.854 Q15.6034 729.048 15.6034 728.855 Q15.6034 728.469 15.8288 728.308 Q16.0542 728.147 16.2797 728.147 Z" fill="#000000" fill-rule="nonzero" fill-opacity="1" /><path clip-path="url(#clip460)" d="M53.9457 703.704 Q55.9973 703.704 58.2968 704.448 Q60.5737 705.169 62.5351 706.251 Q64.4964 707.311 66.5028 708.776 Q68.5092 710.242 69.9295 711.482 Q71.3498 712.722 72.6348 714.007 Q73.3337 714.706 73.8071 715.021 Q73.9424 715.111 75.0019 715.179 Q76.039 715.247 76.4222 715.247 Q82.4415 715.247 82.4415 712.429 Q82.4415 710.084 78.8344 706.432 Q78.4061 705.958 78.4061 705.823 Q78.4061 705.553 78.609 705.417 Q78.8119 705.282 78.9697 705.282 Q79.2628 705.282 80.2547 706.364 Q81.2467 707.424 81.6975 708.078 Q83.456 710.512 83.456 712.519 Q83.456 716.802 76.3771 717.681 Q77.324 718.628 77.9552 719.35 Q78.9246 720.319 79.1501 720.59 Q79.3755 720.86 79.3755 721.018 Q79.3755 721.221 79.1726 721.401 Q78.9697 721.559 78.7893 721.559 Q78.6541 721.559 78.3159 721.333 L74.9569 717.794 Q67.3369 717.794 59.0182 714.142 Q58.432 713.894 57.6881 713.533 Q56.9216 713.173 55.5238 712.338 Q54.1261 711.504 53.0665 710.67 Q51.9844 709.813 51.1728 708.664 Q50.3387 707.514 50.3387 706.432 Q50.3387 703.704 53.9457 703.704 M53.7654 704.809 Q51.3532 704.809 51.3532 706.387 Q51.3532 707.401 52.3902 708.19 Q53.4272 708.957 55.7042 710.084 Q58.1164 711.256 62.242 712.451 Q66.345 713.623 68.5994 714.119 Q70.8538 714.593 71.8683 714.773 Q61.498 704.809 53.7654 704.809 Z" fill="#000000" fill-rule="nonzero" fill-opacity="1" /><polyline clip-path="url(#clip462)" style="stroke:#009af9; stroke-linecap:round; stroke-linejoin:round; stroke-width:4; stroke-opacity:1; fill:none" points="321.91,1273.23 376.679,1233.96 431.449,724.376 486.218,767.083 540.987,1186.76 595.757,890.955 650.526,1209.76 705.295,1162.09 760.065,997.387 814.834,823.581 869.603,935.641 924.372,533.093 979.142,969.916 1033.91,1384.24 1088.68,1312.62 1143.45,747.415 1198.22,404.67 1252.99,1207.79 1307.76,883.028 1362.53,1048.21 1417.3,655.441 1472.07,971.846 1526.83,528.279 1581.6,1251 1636.37,959.148 1691.14,776.546 1745.91,1039.68 1800.68,86.1857 1855.45,394.64 1910.22,1019.36 1964.99,518.346 2019.76,1085.66 2074.53,625.017 2129.3,996.231 2184.07,1014.53 2238.84,823.162 2293.61,999.455 "/>
<path clip-path="url(#clip460)" d="M2027.2 196.789 L2283.09 196.789 L2283.09 93.1086 L2027.2 93.1086  Z" fill="#ffffff" fill-rule="evenodd" fill-opacity="1"/>
<polyline clip-path="url(#clip460)" style="stroke:#000000; stroke-linecap:round; stroke-linejoin:round; stroke-width:4; stroke-opacity:1; fill:none" points="2027.2,196.789 2283.09,196.789 2283.09,93.1086 2027.2,93.1086 2027.2,196.789 "/>
<polyline clip-path="url(#clip460)" style="stroke:#009af9; stroke-linecap:round; stroke-linejoin:round; stroke-width:4; stroke-opacity:1; fill:none" points="2050.42,144.949 2189.76,144.949 "/>
<path clip-path="url(#clip460)" d="M2212.98 168.503 Q2212.98 167.441 2213.6 166.873 Q2214.24 166.329 2215.1 166.329 Q2216.02 166.329 2216.61 166.898 Q2217.23 167.49 2217.23 168.454 Q2217.23 170.331 2215.25 170.578 Q2216.22 171.492 2217.62 171.492 Q2219.13 171.492 2220.34 170.381 Q2221.58 169.269 2222.1 168.207 Q2222.64 167.145 2223.41 165.218 Q2224.12 163.711 2224.66 162.229 L2217.08 143.751 Q2216.59 142.54 2215.82 142.268 Q2215.06 141.997 2212.98 141.997 L2212.98 140.416 Q2215.25 140.564 2217.9 140.564 Q2219.45 140.564 2223.41 140.416 L2223.41 141.997 Q2220.56 141.997 2220.56 143.306 Q2220.56 143.454 2220.86 144.22 L2226.49 157.831 L2231.61 145.381 Q2231.9 144.665 2231.9 144.17 Q2231.9 142.095 2229.53 141.997 L2229.53 140.416 Q2232.87 140.564 2233.93 140.564 Q2236 140.564 2237.71 140.416 L2237.71 141.997 Q2234.32 141.997 2233.01 145.233 L2224.1 166.823 Q2221.68 172.579 2217.62 172.604 Q2215.7 172.604 2214.34 171.418 Q2212.98 170.233 2212.98 168.503 Z" fill="#000000" fill-rule="nonzero" fill-opacity="1" /><path clip-path="url(#clip460)" d="M2243.17 133.35 L2243.17 131.769 Q2249.24 131.769 2252.38 128.533 Q2253.25 128.533 2253.39 128.731 Q2253.54 128.928 2253.54 129.843 L2253.54 158.227 Q2253.54 159.734 2254.28 160.203 Q2255.03 160.672 2258.26 160.672 L2259.87 160.672 L2259.87 162.229 Q2258.09 162.08 2251.67 162.08 Q2245.24 162.08 2243.49 162.229 L2243.49 160.672 L2245.09 160.672 Q2248.28 160.672 2249.05 160.228 Q2249.81 159.758 2249.81 158.227 L2249.81 132.016 Q2247.17 133.35 2243.17 133.35 Z" fill="#000000" fill-rule="nonzero" fill-opacity="1" /></svg>
