<?xml version="1.0" encoding="utf-8"?>
<svg xmlns="http://www.w3.org/2000/svg" xmlns:xlink="http://www.w3.org/1999/xlink" width="600" height="400" viewBox="0 0 2400 1600">
<defs>
  <clipPath id="clip480">
    <rect x="0" y="0" width="2400" height="1600"/>
  </clipPath>
</defs>
<path clip-path="url(#clip480)" d="M0 1600 L2400 1600 L2400 0 L0 0  Z" fill="#ffffff" fill-rule="evenodd" fill-opacity="1"/>
<defs>
  <clipPath id="clip481">
    <rect x="480" y="0" width="1681" height="1600"/>
  </clipPath>
</defs>
<path clip-path="url(#clip480)" d="M262.068 1423.18 L2352.76 1423.18 L2352.76 47.2441 L262.068 47.2441  Z" fill="#ffffff" fill-rule="evenodd" fill-opacity="1"/>
<defs>
  <clipPath id="clip482">
    <rect x="262" y="47" width="2092" height="1377"/>
  </clipPath>
</defs>
<polyline clip-path="url(#clip482)" style="stroke:#000000; stroke-linecap:round; stroke-linejoin:round; stroke-width:2; stroke-opacity:0.1; fill:none" points="266.451,1423.18 266.451,47.2441 "/>
<polyline clip-path="url(#clip482)" style="stroke:#000000; stroke-linecap:round; stroke-linejoin:round; stroke-width:2; stroke-opacity:0.1; fill:none" points="814.325,1423.18 814.325,47.2441 "/>
<polyline clip-path="url(#clip482)" style="stroke:#000000; stroke-linecap:round; stroke-linejoin:round; stroke-width:2; stroke-opacity:0.1; fill:none" points="1362.2,1423.18 1362.2,47.2441 "/>
<polyline clip-path="url(#clip482)" style="stroke:#000000; stroke-linecap:round; stroke-linejoin:round; stroke-width:2; stroke-opacity:0.1; fill:none" points="1910.07,1423.18 1910.07,47.2441 "/>
<polyline clip-path="url(#clip480)" style="stroke:#000000; stroke-linecap:round; stroke-linejoin:round; stroke-width:4; stroke-opacity:1; fill:none" points="262.068,1423.18 2352.76,1423.18 "/>
<polyline clip-path="url(#clip480)" style="stroke:#000000; stroke-linecap:round; stroke-linejoin:round; stroke-width:4; stroke-opacity:1; fill:none" points="266.451,1423.18 266.451,1404.28 "/>
<polyline clip-path="url(#clip480)" style="stroke:#000000; stroke-linecap:round; stroke-linejoin:round; stroke-width:4; stroke-opacity:1; fill:none" points="814.325,1423.18 814.325,1404.28 "/>
<polyline clip-path="url(#clip480)" style="stroke:#000000; stroke-linecap:round; stroke-linejoin:round; stroke-width:4; stroke-opacity:1; fill:none" points="1362.2,1423.18 1362.2,1404.28 "/>
<polyline clip-path="url(#clip480)" style="stroke:#000000; stroke-linecap:round; stroke-linejoin:round; stroke-width:4; stroke-opacity:1; fill:none" points="1910.07,1423.18 1910.07,1404.28 "/>
<path clip-path="url(#clip480)" d="M255.803 1469.4 Q255.803 1461.96 257.681 1457.91 Q260.299 1451.88 266.475 1451.88 Q267.785 1451.88 269.143 1452.26 Q270.527 1452.6 272.256 1453.96 Q274.01 1455.32 275.072 1457.54 Q277.098 1461.84 277.098 1469.4 Q277.098 1476.79 275.22 1480.81 Q272.478 1486.69 266.426 1486.69 Q264.153 1486.69 261.831 1485.53 Q259.534 1484.37 258.076 1481.58 Q255.803 1477.4 255.803 1469.4 M260.003 1468.78 Q260.003 1476.41 260.546 1479.45 Q261.164 1482.74 262.844 1484.17 Q264.548 1485.58 266.426 1485.58 Q268.452 1485.58 270.131 1484.07 Q271.836 1482.54 272.355 1479.26 Q272.923 1476.02 272.898 1468.78 Q272.898 1461.74 272.404 1458.92 Q271.737 1455.64 269.958 1454.33 Q268.204 1453 266.426 1453 Q265.759 1453 265.042 1453.19 Q264.351 1453.39 263.338 1453.96 Q262.325 1454.53 261.535 1455.94 Q260.769 1457.34 260.398 1459.47 Q260.003 1462.21 260.003 1468.78 Z" fill="#000000" fill-rule="nonzero" fill-opacity="1" /><path clip-path="url(#clip480)" d="M792.289 1456.7 L792.289 1455.12 Q798.366 1455.12 801.504 1451.88 Q802.368 1451.88 802.517 1452.08 Q802.665 1452.28 802.665 1453.19 L802.665 1481.58 Q802.665 1483.08 803.406 1483.55 Q804.147 1484.02 807.383 1484.02 L808.989 1484.02 L808.989 1485.58 Q807.21 1485.43 800.787 1485.43 Q794.365 1485.43 792.611 1485.58 L792.611 1484.02 L794.216 1484.02 Q797.403 1484.02 798.169 1483.58 Q798.935 1483.11 798.935 1481.58 L798.935 1455.37 Q796.291 1456.7 792.289 1456.7 Z" fill="#000000" fill-rule="nonzero" fill-opacity="1" /><path clip-path="url(#clip480)" d="M815.066 1469.4 Q815.066 1461.96 816.943 1457.91 Q819.562 1451.88 825.738 1451.88 Q827.047 1451.88 828.406 1452.26 Q829.789 1452.6 831.518 1453.96 Q833.272 1455.32 834.335 1457.54 Q836.36 1461.84 836.36 1469.4 Q836.36 1476.79 834.483 1480.81 Q831.741 1486.69 825.688 1486.69 Q823.416 1486.69 821.094 1485.53 Q818.796 1484.37 817.339 1481.58 Q815.066 1477.4 815.066 1469.4 M819.266 1468.78 Q819.266 1476.41 819.809 1479.45 Q820.427 1482.74 822.106 1484.17 Q823.811 1485.58 825.688 1485.58 Q827.714 1485.58 829.394 1484.07 Q831.098 1482.54 831.617 1479.26 Q832.185 1476.02 832.161 1468.78 Q832.161 1461.74 831.667 1458.92 Q831 1455.64 829.221 1454.33 Q827.467 1453 825.688 1453 Q825.021 1453 824.305 1453.19 Q823.613 1453.39 822.6 1453.96 Q821.588 1454.53 820.797 1455.94 Q820.031 1457.34 819.661 1459.47 Q819.266 1462.21 819.266 1468.78 Z" fill="#000000" fill-rule="nonzero" fill-opacity="1" /><path clip-path="url(#clip480)" d="M1339.18 1485.58 Q1339.18 1484.67 1339.25 1484.39 Q1339.35 1484.12 1339.74 1483.7 L1349.45 1472.88 Q1354.76 1466.9 1354.76 1461.69 Q1354.76 1458.31 1352.98 1455.89 Q1351.23 1453.47 1347.99 1453.47 Q1345.77 1453.47 1343.89 1454.82 Q1342.02 1456.18 1341.15 1458.6 Q1341.3 1458.55 1341.82 1458.55 Q1343.08 1458.55 1343.77 1459.34 Q1344.49 1460.14 1344.49 1461.2 Q1344.49 1462.56 1343.6 1463.22 Q1342.73 1463.87 1341.87 1463.87 Q1341.52 1463.87 1341.05 1463.79 Q1340.61 1463.72 1339.89 1463.03 Q1339.18 1462.31 1339.18 1461.05 Q1339.18 1457.52 1341.84 1454.7 Q1344.54 1451.88 1348.64 1451.88 Q1353.28 1451.88 1356.32 1454.65 Q1359.38 1457.39 1359.38 1461.69 Q1359.38 1463.2 1358.91 1464.58 Q1358.47 1465.94 1357.85 1467 Q1357.26 1468.07 1355.63 1469.77 Q1354 1471.47 1352.69 1472.68 Q1351.38 1473.9 1348.44 1476.46 L1343.08 1481.68 L1352.19 1481.68 Q1356.64 1481.68 1356.99 1481.28 Q1357.48 1480.57 1358.1 1476.79 L1359.38 1476.79 L1357.95 1485.58 L1339.18 1485.58 Z" fill="#000000" fill-rule="nonzero" fill-opacity="1" /><path clip-path="url(#clip480)" d="M1363.93 1469.4 Q1363.93 1461.96 1365.81 1457.91 Q1368.42 1451.88 1374.6 1451.88 Q1375.91 1451.88 1377.27 1452.26 Q1378.65 1452.6 1380.38 1453.96 Q1382.13 1455.32 1383.2 1457.54 Q1385.22 1461.84 1385.22 1469.4 Q1385.22 1476.79 1383.35 1480.81 Q1380.6 1486.69 1374.55 1486.69 Q1372.28 1486.69 1369.96 1485.53 Q1367.66 1484.37 1366.2 1481.58 Q1363.93 1477.4 1363.93 1469.4 M1368.13 1468.78 Q1368.13 1476.41 1368.67 1479.45 Q1369.29 1482.74 1370.97 1484.17 Q1372.67 1485.58 1374.55 1485.58 Q1376.58 1485.58 1378.26 1484.07 Q1379.96 1482.54 1380.48 1479.26 Q1381.05 1476.02 1381.02 1468.78 Q1381.02 1461.74 1380.53 1458.92 Q1379.86 1455.64 1378.08 1454.33 Q1376.33 1453 1374.55 1453 Q1373.88 1453 1373.17 1453.19 Q1372.48 1453.39 1371.46 1453.96 Q1370.45 1454.53 1369.66 1455.94 Q1368.89 1457.34 1368.52 1459.47 Q1368.13 1462.21 1368.13 1468.78 Z" fill="#000000" fill-rule="nonzero" fill-opacity="1" /><path clip-path="url(#clip480)" d="M1886.85 1478.76 Q1886.85 1477.25 1887.72 1476.54 Q1888.58 1475.82 1889.69 1475.82 Q1890.85 1475.82 1891.67 1476.59 Q1892.51 1477.33 1892.51 1478.64 Q1892.51 1480.05 1891.52 1480.84 Q1890.56 1481.63 1889.17 1481.43 Q1890.38 1483.46 1892.61 1484.37 Q1894.86 1485.28 1896.93 1485.28 Q1899.11 1485.28 1900.86 1483.41 Q1902.64 1481.53 1902.64 1476.93 Q1902.64 1473.03 1901.11 1470.78 Q1899.6 1468.53 1896.61 1468.53 L1894.39 1468.53 Q1893.62 1468.53 1893.4 1468.46 Q1893.18 1468.39 1893.18 1467.97 Q1893.18 1467.47 1893.94 1467.37 Q1894.71 1467.37 1895.92 1467.23 Q1898.86 1467.13 1900.41 1464.58 Q1901.82 1462.21 1901.82 1458.83 Q1901.82 1455.74 1900.34 1454.45 Q1898.88 1453.14 1896.98 1453.14 Q1895.2 1453.14 1893.25 1453.89 Q1891.3 1454.63 1890.24 1456.28 Q1893.37 1456.28 1893.37 1458.83 Q1893.37 1459.94 1892.66 1460.68 Q1891.97 1461.4 1890.8 1461.4 Q1889.69 1461.4 1888.95 1460.7 Q1888.21 1459.99 1888.21 1458.78 Q1888.21 1455.89 1890.78 1453.89 Q1893.37 1451.88 1897.18 1451.88 Q1900.93 1451.88 1903.7 1453.86 Q1906.49 1455.84 1906.49 1458.88 Q1906.49 1461.86 1904.52 1464.31 Q1902.54 1466.76 1899.4 1467.77 Q1903.26 1468.53 1905.55 1471.15 Q1907.85 1473.75 1907.85 1476.93 Q1907.85 1480.89 1904.74 1483.8 Q1901.62 1486.69 1897.08 1486.69 Q1892.88 1486.69 1889.87 1484.42 Q1886.85 1482.15 1886.85 1478.76 Z" fill="#000000" fill-rule="nonzero" fill-opacity="1" /><path clip-path="url(#clip480)" d="M1912 1469.4 Q1912 1461.96 1913.88 1457.91 Q1916.5 1451.88 1922.67 1451.88 Q1923.98 1451.88 1925.34 1452.26 Q1926.72 1452.6 1928.45 1453.96 Q1930.21 1455.32 1931.27 1457.54 Q1933.29 1461.84 1933.29 1469.4 Q1933.29 1476.79 1931.42 1480.81 Q1928.68 1486.69 1922.62 1486.69 Q1920.35 1486.69 1918.03 1485.53 Q1915.73 1484.37 1914.27 1481.58 Q1912 1477.4 1912 1469.4 M1916.2 1468.78 Q1916.2 1476.41 1916.74 1479.45 Q1917.36 1482.74 1919.04 1484.17 Q1920.75 1485.58 1922.62 1485.58 Q1924.65 1485.58 1926.33 1484.07 Q1928.03 1482.54 1928.55 1479.26 Q1929.12 1476.02 1929.1 1468.78 Q1929.1 1461.74 1928.6 1458.92 Q1927.93 1455.64 1926.16 1454.33 Q1924.4 1453 1922.62 1453 Q1921.96 1453 1921.24 1453.19 Q1920.55 1453.39 1919.53 1453.96 Q1918.52 1454.53 1917.73 1455.94 Q1916.97 1457.34 1916.6 1459.47 Q1916.2 1462.21 1916.2 1468.78 Z" fill="#000000" fill-rule="nonzero" fill-opacity="1" /><path clip-path="url(#clip480)" d="M993.165 1562.16 L993.165 1560.02 Q995.679 1560.02 997.275 1559.55 Q998.872 1559.04 999.449 1558.12 Q1000.06 1557.17 1000.2 1556.56 Q1000.33 1555.91 1000.33 1554.86 L1000.33 1520.08 Q1000.33 1518.08 999.449 1517.46 Q998.6 1516.82 994.829 1516.82 L993.165 1516.82 L993.165 1514.64 L1004.92 1514.64 Q1006.17 1514.64 1006.51 1514.88 Q1006.85 1515.09 1007.36 1516.17 L1022.44 1555.13 L1037.66 1515.97 Q1038 1514.98 1038.31 1514.81 Q1038.65 1514.64 1039.97 1514.64 L1051.72 1514.64 L1051.72 1516.82 L1050.06 1516.82 Q1046.29 1516.82 1045.41 1517.46 Q1044.56 1518.08 1044.56 1520.08 L1044.56 1556.73 Q1044.56 1558.73 1045.41 1559.38 Q1046.29 1560.02 1050.06 1560.02 L1051.72 1560.02 L1051.72 1562.16 Q1049.14 1561.96 1041.77 1561.96 Q1034.33 1561.96 1031.75 1562.16 L1031.75 1560.02 L1033.45 1560.02 Q1037.22 1560.02 1038.07 1559.41 Q1038.92 1558.77 1038.92 1556.73 L1038.92 1516.82 L1038.85 1516.82 L1021.77 1560.84 Q1021.29 1562.16 1020.51 1562.16 Q1019.66 1562.16 1019.12 1560.64 L1002.34 1517.36 L1002.27 1517.36 L1002.27 1554.86 Q1002.27 1555.91 1002.4 1556.56 Q1002.54 1557.17 1003.12 1558.12 Q1003.73 1559.04 1005.33 1559.55 Q1006.92 1560.02 1009.44 1560.02 L1009.44 1562.16 Q1002.13 1561.96 1001.28 1561.96 Q1000.47 1561.96 993.165 1562.16 Z" fill="#000000" fill-rule="nonzero" fill-opacity="1" /><path clip-path="url(#clip480)" d="M1056.51 1534.35 L1056.51 1532.17 L1066.74 1531.42 L1066.74 1554.52 Q1066.74 1556.19 1066.87 1557.17 Q1067.01 1558.12 1067.55 1559.24 Q1068.13 1560.36 1069.42 1560.87 Q1070.75 1561.38 1072.85 1561.38 Q1076.62 1561.38 1078.93 1558.29 Q1081.28 1555.2 1081.28 1550.62 L1081.28 1538.22 Q1081.28 1535.64 1080.36 1534.99 Q1079.44 1534.35 1075.84 1534.35 L1075.84 1532.17 L1086.07 1531.42 L1086.07 1556.12 Q1086.07 1558.7 1086.95 1559.38 Q1087.87 1560.02 1091.5 1560.02 L1091.5 1562.16 L1081.48 1562.95 L1081.48 1556.66 Q1078.56 1562.91 1072.51 1562.95 Q1069.46 1562.95 1067.35 1562.16 Q1065.28 1561.38 1064.22 1560.43 Q1063.17 1559.45 1062.59 1557.58 Q1062.05 1555.71 1061.98 1554.56 Q1061.91 1553.4 1061.91 1551.16 L1061.91 1540.73 Q1061.91 1536.01 1061.24 1535.19 Q1060.56 1534.35 1056.51 1534.35 Z" fill="#000000" fill-rule="nonzero" fill-opacity="1" /><path clip-path="url(#clip480)" d="M1095.17 1562.16 L1095.17 1560.02 Q1098.87 1560.02 1099.72 1559.58 Q1100.57 1559.11 1100.57 1556.87 L1100.57 1520.69 Q1100.57 1518.11 1099.65 1517.46 Q1098.77 1516.82 1095.17 1516.82 L1095.17 1514.64 L1105.15 1513.9 L1105.15 1556.87 Q1105.15 1559.11 1106.04 1559.58 Q1106.92 1560.02 1110.59 1560.02 L1110.59 1562.16 Q1109.74 1562.16 1107.97 1562.1 Q1106.21 1562.03 1104.92 1561.99 Q1103.63 1561.96 1102.88 1561.96 Q1102.06 1561.96 1095.17 1562.16 Z" fill="#000000" fill-rule="nonzero" fill-opacity="1" /><path clip-path="url(#clip480)" d="M1113.44 1534.35 L1113.44 1532.82 Q1116.64 1532.68 1118.74 1530.44 Q1120.88 1528.16 1121.59 1525.38 Q1122.34 1522.59 1122.41 1519.37 L1124.14 1519.37 L1124.14 1532.17 L1134.09 1532.17 L1134.09 1534.35 L1124.14 1534.35 L1124.14 1553.67 Q1124.14 1561.18 1128.83 1561.18 Q1130.83 1561.18 1132.16 1559.14 Q1133.48 1557.07 1133.48 1553.4 L1133.48 1549.56 L1135.22 1549.56 L1135.22 1553.54 Q1135.22 1557.31 1133.48 1560.13 Q1131.75 1562.95 1128.32 1562.95 Q1127.06 1562.95 1125.81 1562.61 Q1124.58 1562.3 1122.95 1561.49 Q1121.36 1560.64 1120.34 1558.6 Q1119.35 1556.53 1119.35 1553.54 L1119.35 1534.35 L1113.44 1534.35 Z" fill="#000000" fill-rule="nonzero" fill-opacity="1" /><path clip-path="url(#clip480)" d="M1141.4 1562.16 L1141.4 1560.02 Q1145.1 1560.02 1145.95 1559.58 Q1146.8 1559.11 1146.8 1556.87 L1146.8 1538.15 Q1146.8 1535.57 1145.92 1534.96 Q1145.07 1534.35 1141.67 1534.35 L1141.67 1532.17 L1151.38 1531.42 L1151.38 1556.93 Q1151.38 1559.01 1152.13 1559.52 Q1152.88 1560.02 1156.28 1560.02 L1156.28 1562.16 Q1149.18 1561.96 1149.04 1561.96 Q1148.09 1561.96 1141.4 1562.16 M1144.32 1519.3 Q1144.32 1517.91 1145.37 1516.78 Q1146.46 1515.63 1147.99 1515.63 Q1149.52 1515.63 1150.6 1516.68 Q1151.69 1517.7 1151.69 1519.33 Q1151.69 1520.93 1150.6 1521.98 Q1149.52 1523 1147.99 1523 Q1146.39 1523 1145.34 1521.88 Q1144.32 1520.76 1144.32 1519.3 Z" fill="#000000" fill-rule="nonzero" fill-opacity="1" /><path clip-path="url(#clip480)" d="M1160.28 1573.51 Q1163.99 1573.51 1164.83 1573.03 Q1165.72 1572.59 1165.72 1570.38 L1165.72 1537.81 Q1165.72 1535.5 1164.83 1534.92 Q1163.99 1534.35 1160.28 1534.35 L1160.28 1532.17 L1170.3 1531.42 L1170.3 1536.01 Q1174.48 1531.42 1180.05 1531.42 Q1185.96 1531.42 1190.28 1536.01 Q1194.59 1540.6 1194.59 1547.15 Q1194.59 1553.77 1190 1558.36 Q1185.42 1562.95 1179.07 1562.95 Q1175.6 1562.95 1173.26 1561.18 Q1170.95 1559.38 1170.51 1558.05 L1170.51 1558.7 L1170.51 1570.38 Q1170.51 1572.63 1171.39 1573.07 Q1172.27 1573.51 1175.94 1573.51 L1175.94 1575.65 Q1168.64 1575.45 1168.1 1575.45 Q1167.42 1575.45 1160.28 1575.65 L1160.28 1573.51 M1170.51 1554.25 Q1170.51 1555.3 1170.64 1555.68 Q1170.81 1556.05 1171.49 1557.17 Q1174.24 1561.38 1178.73 1561.38 Q1178.76 1561.38 1178.8 1561.38 Q1182.77 1561.38 1185.79 1557.34 Q1188.82 1553.27 1188.82 1547.15 Q1188.82 1541.31 1186.06 1537.23 Q1183.31 1533.16 1179.51 1533.16 Q1176.79 1533.16 1174.41 1534.62 Q1172.04 1536.08 1170.51 1538.73 L1170.51 1554.25 Z" fill="#000000" fill-rule="nonzero" fill-opacity="1" /><path clip-path="url(#clip480)" d="M1205.39 1558.43 Q1200.81 1553.88 1200.81 1547.29 Q1200.81 1540.66 1205.29 1535.84 Q1209.81 1530.98 1216.26 1530.98 Q1222.58 1530.98 1227.1 1535.81 Q1231.65 1540.6 1231.65 1547.29 Q1231.65 1553.84 1227.06 1558.39 Q1222.51 1562.95 1216.19 1562.95 Q1210.01 1562.95 1205.39 1558.43 M1206.58 1546.71 Q1206.58 1553.47 1208.35 1556.53 Q1211.06 1561.18 1216.26 1561.18 Q1218.84 1561.18 1220.98 1559.79 Q1223.16 1558.39 1224.35 1556.05 Q1225.87 1552.99 1225.87 1546.71 Q1225.87 1540.02 1224.04 1537.06 Q1221.32 1532.55 1216.19 1532.55 Q1213.95 1532.55 1211.74 1533.73 Q1209.57 1534.89 1208.24 1537.2 Q1206.58 1540.26 1206.58 1546.71 Z" fill="#000000" fill-rule="nonzero" fill-opacity="1" /><path clip-path="url(#clip480)" d="M1235.96 1562.16 L1235.96 1560.02 Q1239.66 1560.02 1240.51 1559.58 Q1241.36 1559.11 1241.36 1556.87 L1241.36 1520.69 Q1241.36 1518.11 1240.45 1517.46 Q1239.56 1516.82 1235.96 1516.82 L1235.96 1514.64 L1245.95 1513.9 L1245.95 1556.87 Q1245.95 1559.11 1246.83 1559.58 Q1247.71 1560.02 1251.38 1560.02 L1251.38 1562.16 Q1250.53 1562.16 1248.77 1562.1 Q1247 1562.03 1245.71 1561.99 Q1244.42 1561.96 1243.67 1561.96 Q1242.86 1561.96 1235.96 1562.16 Z" fill="#000000" fill-rule="nonzero" fill-opacity="1" /><path clip-path="url(#clip480)" d="M1254.85 1546.85 Q1254.85 1540.29 1259.06 1535.64 Q1263.27 1530.98 1269.32 1530.98 Q1275.43 1530.98 1278.59 1534.96 Q1281.78 1538.93 1281.78 1544.64 Q1281.78 1545.69 1281.51 1545.89 Q1281.24 1546.1 1280.05 1546.1 L1260.62 1546.1 Q1260.62 1553.2 1262.73 1556.53 Q1265.65 1561.18 1270.57 1561.18 Q1271.25 1561.18 1272.07 1561.04 Q1272.88 1560.91 1274.55 1560.33 Q1276.21 1559.72 1277.67 1558.12 Q1279.13 1556.53 1279.98 1554.01 Q1280.19 1553.03 1280.87 1553.06 Q1281.78 1553.06 1281.78 1553.88 Q1281.78 1554.49 1281.1 1555.88 Q1280.46 1557.24 1279.2 1558.87 Q1277.95 1560.5 1275.5 1561.72 Q1273.09 1562.95 1270.17 1562.95 Q1264.05 1562.95 1259.43 1558.33 Q1254.85 1553.67 1254.85 1546.85 M1260.69 1544.64 L1277.2 1544.64 Q1277.2 1543.18 1276.93 1541.55 Q1276.69 1539.92 1275.94 1537.67 Q1275.23 1535.4 1273.53 1533.97 Q1271.83 1532.55 1269.32 1532.55 Q1268.2 1532.55 1266.97 1533.02 Q1265.79 1533.5 1264.32 1534.65 Q1262.86 1535.81 1261.84 1538.42 Q1260.83 1541.04 1260.69 1544.64 Z" fill="#000000" fill-rule="nonzero" fill-opacity="1" /><path clip-path="url(#clip480)" d="M1309.16 1562.16 L1309.16 1560.02 Q1312.86 1560.02 1313.71 1559.58 Q1314.56 1559.11 1314.56 1556.87 L1314.56 1538.22 Q1314.56 1535.64 1313.64 1534.99 Q1312.76 1534.35 1309.16 1534.35 L1309.16 1532.17 L1318.94 1531.42 L1318.94 1538.73 Q1322.2 1531.42 1329.24 1531.42 Q1337.39 1531.42 1338.51 1538.22 Q1339.7 1535.57 1342.18 1533.5 Q1344.69 1531.42 1348.6 1531.42 Q1353.83 1531.42 1355.9 1534.01 Q1357.43 1535.74 1357.73 1537.67 Q1358.04 1539.61 1358.04 1544.64 L1358.04 1557.92 Q1358.11 1559.38 1359.23 1559.72 Q1360.35 1560.02 1363.47 1560.02 L1363.47 1562.16 Q1356.38 1561.96 1355.7 1561.96 Q1355.15 1561.96 1347.82 1562.16 L1347.82 1560.02 Q1351.52 1560.02 1352.37 1559.58 Q1353.25 1559.11 1353.25 1556.87 L1353.25 1540.66 Q1353.25 1537.13 1352.16 1535.06 Q1351.08 1532.95 1348.09 1532.95 Q1344.49 1532.95 1341.6 1535.98 Q1338.71 1539 1338.71 1544.09 L1338.71 1556.87 Q1338.71 1559.11 1339.56 1559.58 Q1340.44 1560.02 1344.15 1560.02 L1344.15 1562.16 Q1337.05 1561.96 1336.33 1561.96 Q1335.79 1561.96 1328.49 1562.16 L1328.49 1560.02 Q1332.19 1560.02 1333.04 1559.58 Q1333.92 1559.11 1333.92 1556.87 L1333.92 1540.66 Q1333.92 1537.13 1332.84 1535.06 Q1331.75 1532.95 1328.76 1532.95 Q1325.16 1532.95 1322.27 1535.98 Q1319.39 1539 1319.39 1544.09 L1319.39 1556.87 Q1319.39 1559.11 1320.23 1559.58 Q1321.12 1560.02 1324.79 1560.02 L1324.79 1562.16 Q1317.69 1561.96 1317.01 1561.96 Q1316.46 1561.96 1309.16 1562.16 Z" fill="#000000" fill-rule="nonzero" fill-opacity="1" /><path clip-path="url(#clip480)" d="M1371.35 1558.43 Q1366.77 1553.88 1366.77 1547.29 Q1366.77 1540.66 1371.25 1535.84 Q1375.77 1530.98 1382.22 1530.98 Q1388.54 1530.98 1393.06 1535.81 Q1397.61 1540.6 1397.61 1547.29 Q1397.61 1553.84 1393.03 1558.39 Q1388.47 1562.95 1382.16 1562.95 Q1375.97 1562.95 1371.35 1558.43 M1372.54 1546.71 Q1372.54 1553.47 1374.31 1556.53 Q1377.03 1561.18 1382.22 1561.18 Q1384.81 1561.18 1386.95 1559.79 Q1389.12 1558.39 1390.31 1556.05 Q1391.84 1552.99 1391.84 1546.71 Q1391.84 1540.02 1390 1537.06 Q1387.29 1532.55 1382.16 1532.55 Q1379.91 1532.55 1377.71 1533.73 Q1375.53 1534.89 1374.21 1537.2 Q1372.54 1540.26 1372.54 1546.71 Z" fill="#000000" fill-rule="nonzero" fill-opacity="1" /><path clip-path="url(#clip480)" d="M1401.86 1562.16 L1401.86 1560.02 Q1405.56 1560.02 1406.41 1559.58 Q1407.26 1559.11 1407.26 1556.87 L1407.26 1538.22 Q1407.26 1535.64 1406.34 1534.99 Q1405.46 1534.35 1401.86 1534.35 L1401.86 1532.17 L1411.64 1531.42 L1411.64 1538.73 Q1414.9 1531.42 1421.93 1531.42 Q1430.08 1531.42 1431.21 1538.22 Q1432.39 1535.57 1434.87 1533.5 Q1437.39 1531.42 1441.29 1531.42 Q1446.52 1531.42 1448.6 1534.01 Q1450.12 1535.74 1450.43 1537.67 Q1450.74 1539.61 1450.74 1544.64 L1450.74 1557.92 Q1450.8 1559.38 1451.92 1559.72 Q1453.05 1560.02 1456.17 1560.02 L1456.17 1562.16 Q1449.07 1561.96 1448.39 1561.96 Q1447.85 1561.96 1440.51 1562.16 L1440.51 1560.02 Q1444.21 1560.02 1445.06 1559.58 Q1445.95 1559.11 1445.95 1556.87 L1445.95 1540.66 Q1445.95 1537.13 1444.86 1535.06 Q1443.77 1532.95 1440.78 1532.95 Q1437.18 1532.95 1434.3 1535.98 Q1431.41 1539 1431.41 1544.09 L1431.41 1556.87 Q1431.41 1559.11 1432.26 1559.58 Q1433.14 1560.02 1436.84 1560.02 L1436.84 1562.16 Q1429.74 1561.96 1429.03 1561.96 Q1428.49 1561.96 1421.18 1562.16 L1421.18 1560.02 Q1424.89 1560.02 1425.74 1559.58 Q1426.62 1559.11 1426.62 1556.87 L1426.62 1540.66 Q1426.62 1537.13 1425.53 1535.06 Q1424.45 1532.95 1421.46 1532.95 Q1417.86 1532.95 1414.97 1535.98 Q1412.08 1539 1412.08 1544.09 L1412.08 1556.87 Q1412.08 1559.11 1412.93 1559.58 Q1413.81 1560.02 1417.48 1560.02 L1417.48 1562.16 Q1410.38 1561.96 1409.7 1561.96 Q1409.16 1561.96 1401.86 1562.16 Z" fill="#000000" fill-rule="nonzero" fill-opacity="1" /><path clip-path="url(#clip480)" d="M1459.47 1546.85 Q1459.47 1540.29 1463.68 1535.64 Q1467.89 1530.98 1473.94 1530.98 Q1480.05 1530.98 1483.21 1534.96 Q1486.4 1538.93 1486.4 1544.64 Q1486.4 1545.69 1486.13 1545.89 Q1485.86 1546.1 1484.67 1546.1 L1465.24 1546.1 Q1465.24 1553.2 1467.35 1556.53 Q1470.27 1561.18 1475.19 1561.18 Q1475.87 1561.18 1476.69 1561.04 Q1477.5 1560.91 1479.17 1560.33 Q1480.83 1559.72 1482.29 1558.12 Q1483.75 1556.53 1484.6 1554.01 Q1484.81 1553.03 1485.48 1553.06 Q1486.4 1553.06 1486.4 1553.88 Q1486.4 1554.49 1485.72 1555.88 Q1485.08 1557.24 1483.82 1558.87 Q1482.56 1560.5 1480.12 1561.72 Q1477.71 1562.95 1474.78 1562.95 Q1468.67 1562.95 1464.05 1558.33 Q1459.47 1553.67 1459.47 1546.85 M1465.31 1544.64 L1481.82 1544.64 Q1481.82 1543.18 1481.54 1541.55 Q1481.31 1539.92 1480.56 1537.67 Q1479.85 1535.4 1478.15 1533.97 Q1476.45 1532.55 1473.94 1532.55 Q1472.81 1532.55 1471.59 1533.02 Q1470.4 1533.5 1468.94 1534.65 Q1467.48 1535.81 1466.46 1538.42 Q1465.44 1541.04 1465.31 1544.64 Z" fill="#000000" fill-rule="nonzero" fill-opacity="1" /><path clip-path="url(#clip480)" d="M1490.65 1562.16 L1490.65 1560.02 Q1494.35 1560.02 1495.2 1559.58 Q1496.05 1559.11 1496.05 1556.87 L1496.05 1538.22 Q1496.05 1535.64 1495.13 1534.99 Q1494.25 1534.35 1490.65 1534.35 L1490.65 1532.17 L1500.43 1531.42 L1500.43 1538.73 Q1503.69 1531.42 1510.72 1531.42 Q1515.95 1531.42 1518.03 1534.01 Q1519.55 1535.74 1519.86 1537.67 Q1520.2 1539.61 1520.2 1544.64 L1520.2 1557.92 Q1520.27 1559.38 1521.39 1559.72 Q1522.51 1560.02 1525.63 1560.02 L1525.63 1562.16 Q1518.53 1561.96 1517.82 1561.96 Q1517.28 1561.96 1509.97 1562.16 L1509.97 1560.02 Q1513.68 1560.02 1514.53 1559.58 Q1515.41 1559.11 1515.41 1556.87 L1515.41 1540.66 Q1515.41 1537.13 1514.32 1535.06 Q1513.24 1532.95 1510.25 1532.95 Q1506.65 1532.95 1503.76 1535.98 Q1500.87 1539 1500.87 1544.09 L1500.87 1556.87 Q1500.87 1559.11 1501.72 1559.58 Q1502.6 1560.02 1506.27 1560.02 L1506.27 1562.16 Q1499.17 1561.96 1498.49 1561.96 Q1497.95 1561.96 1490.65 1562.16 Z" fill="#000000" fill-rule="nonzero" fill-opacity="1" /><path clip-path="url(#clip480)" d="M1526.38 1534.35 L1526.38 1532.82 Q1529.57 1532.68 1531.68 1530.44 Q1533.82 1528.16 1534.53 1525.38 Q1535.28 1522.59 1535.35 1519.37 L1537.08 1519.37 L1537.08 1532.17 L1547.03 1532.17 L1547.03 1534.35 L1537.08 1534.35 L1537.08 1553.67 Q1537.08 1561.18 1541.77 1561.18 Q1543.77 1561.18 1545.1 1559.14 Q1546.42 1557.07 1546.42 1553.4 L1546.42 1549.56 L1548.15 1549.56 L1548.15 1553.54 Q1548.15 1557.31 1546.42 1560.13 Q1544.69 1562.95 1541.26 1562.95 Q1540 1562.95 1538.74 1562.61 Q1537.52 1562.3 1535.89 1561.49 Q1534.3 1560.64 1533.28 1558.6 Q1532.29 1556.53 1532.29 1553.54 L1532.29 1534.35 L1526.38 1534.35 Z" fill="#000000" fill-rule="nonzero" fill-opacity="1" /><path clip-path="url(#clip480)" d="M1558.99 1561.04 Q1558 1559.92 1558 1558.46 Q1558 1557 1558.96 1555.91 Q1559.94 1554.79 1561.71 1554.79 Q1563.78 1554.79 1564.97 1556.8 Q1566.16 1558.77 1566.16 1562.1 Q1566.16 1565.7 1564.7 1569.03 Q1563.24 1572.39 1561.81 1573.99 Q1560.38 1575.58 1559.8 1575.58 Q1559.13 1575.58 1559.13 1574.83 Q1559.13 1574.56 1559.6 1574.05 Q1564.59 1568.69 1564.63 1562.1 Q1564.63 1561.04 1564.49 1561.04 L1564.32 1561.18 Q1563.13 1562.16 1561.71 1562.16 Q1559.97 1562.16 1558.99 1561.04 Z" fill="#000000" fill-rule="nonzero" fill-opacity="1" /><path clip-path="url(#clip480)" d="M1619.92 1520.81 Q1619.92 1523.74 1618.86 1527.03 Q1617.83 1530.28 1616.28 1533.08 Q1614.77 1535.88 1612.68 1538.75 Q1610.58 1541.62 1608.81 1543.65 Q1607.04 1545.68 1605.21 1547.51 Q1604.21 1548.51 1603.76 1549.19 Q1603.63 1549.38 1603.53 1550.89 Q1603.43 1552.37 1603.43 1552.92 Q1603.43 1561.52 1607.46 1561.52 Q1610.81 1561.52 1616.03 1556.37 Q1616.7 1555.76 1616.9 1555.76 Q1617.28 1555.76 1617.48 1556.05 Q1617.67 1556.34 1617.67 1556.56 Q1617.67 1556.98 1616.12 1558.4 Q1614.61 1559.81 1613.68 1560.46 Q1610.2 1562.97 1607.33 1562.97 Q1601.21 1562.97 1599.96 1552.86 Q1598.6 1554.21 1597.57 1555.11 Q1596.19 1556.5 1595.8 1556.82 Q1595.42 1557.14 1595.19 1557.14 Q1594.9 1557.14 1594.64 1556.85 Q1594.42 1556.56 1594.42 1556.3 Q1594.42 1556.11 1594.74 1555.63 L1599.8 1550.83 Q1599.8 1539.94 1605.01 1528.06 Q1605.37 1527.22 1605.88 1526.16 Q1606.4 1525.06 1607.59 1523.07 Q1608.78 1521.07 1609.97 1519.56 Q1611.2 1518.01 1612.84 1516.85 Q1614.48 1515.66 1616.03 1515.66 Q1619.92 1515.66 1619.92 1520.81 M1618.35 1520.55 Q1618.35 1517.11 1616.09 1517.11 Q1614.64 1517.11 1613.52 1518.59 Q1612.42 1520.07 1610.81 1523.32 Q1609.14 1526.77 1607.43 1532.66 Q1605.75 1538.53 1605.04 1541.75 Q1604.37 1544.97 1604.11 1546.42 Q1618.35 1531.6 1618.35 1520.55 Z" fill="#000000" fill-rule="nonzero" fill-opacity="1" /><polyline clip-path="url(#clip482)" style="stroke:#000000; stroke-linecap:round; stroke-linejoin:round; stroke-width:2; stroke-opacity:0.1; fill:none" points="262.068,1399.16 2352.76,1399.16 "/>
<polyline clip-path="url(#clip482)" style="stroke:#000000; stroke-linecap:round; stroke-linejoin:round; stroke-width:2; stroke-opacity:0.1; fill:none" points="262.068,1094.1 2352.76,1094.1 "/>
<polyline clip-path="url(#clip482)" style="stroke:#000000; stroke-linecap:round; stroke-linejoin:round; stroke-width:2; stroke-opacity:0.1; fill:none" points="262.068,789.043 2352.76,789.043 "/>
<polyline clip-path="url(#clip482)" style="stroke:#000000; stroke-linecap:round; stroke-linejoin:round; stroke-width:2; stroke-opacity:0.1; fill:none" points="262.068,483.985 2352.76,483.985 "/>
<polyline clip-path="url(#clip482)" style="stroke:#000000; stroke-linecap:round; stroke-linejoin:round; stroke-width:2; stroke-opacity:0.1; fill:none" points="262.068,178.928 2352.76,178.928 "/>
<polyline clip-path="url(#clip480)" style="stroke:#000000; stroke-linecap:round; stroke-linejoin:round; stroke-width:4; stroke-opacity:1; fill:none" points="262.068,1423.18 262.068,47.2441 "/>
<polyline clip-path="url(#clip480)" style="stroke:#000000; stroke-linecap:round; stroke-linejoin:round; stroke-width:4; stroke-opacity:1; fill:none" points="262.068,1399.16 280.965,1399.16 "/>
<polyline clip-path="url(#clip480)" style="stroke:#000000; stroke-linecap:round; stroke-linejoin:round; stroke-width:4; stroke-opacity:1; fill:none" points="262.068,1094.1 280.965,1094.1 "/>
<polyline clip-path="url(#clip480)" style="stroke:#000000; stroke-linecap:round; stroke-linejoin:round; stroke-width:4; stroke-opacity:1; fill:none" points="262.068,789.043 280.965,789.043 "/>
<polyline clip-path="url(#clip480)" style="stroke:#000000; stroke-linecap:round; stroke-linejoin:round; stroke-width:4; stroke-opacity:1; fill:none" points="262.068,483.985 280.965,483.985 "/>
<polyline clip-path="url(#clip480)" style="stroke:#000000; stroke-linecap:round; stroke-linejoin:round; stroke-width:4; stroke-opacity:1; fill:none" points="262.068,178.928 280.965,178.928 "/>
<path clip-path="url(#clip480)" d="M114.26 1400.26 Q114.26 1392.82 116.138 1388.77 Q118.756 1382.74 124.932 1382.74 Q126.241 1382.74 127.6 1383.11 Q128.983 1383.46 130.713 1384.82 Q132.467 1386.18 133.529 1388.4 Q135.554 1392.7 135.554 1400.26 Q135.554 1407.64 133.677 1411.67 Q130.935 1417.55 124.883 1417.55 Q122.61 1417.55 120.288 1416.39 Q117.99 1415.23 116.533 1412.44 Q114.26 1408.26 114.26 1400.26 M118.46 1399.64 Q118.46 1407.27 119.003 1410.31 Q119.621 1413.6 121.301 1415.03 Q123.005 1416.44 124.883 1416.44 Q126.908 1416.44 128.588 1414.93 Q130.293 1413.4 130.811 1410.11 Q131.38 1406.88 131.355 1399.64 Q131.355 1392.6 130.861 1389.78 Q130.194 1386.5 128.415 1385.19 Q126.661 1383.85 124.883 1383.85 Q124.216 1383.85 123.499 1384.05 Q122.808 1384.25 121.795 1384.82 Q120.782 1385.39 119.991 1386.79 Q119.226 1388.2 118.855 1390.33 Q118.46 1393.07 118.46 1399.64 Z" fill="#000000" fill-rule="nonzero" fill-opacity="1" /><path clip-path="url(#clip480)" d="M142.644 1415.62 Q141.879 1414.81 141.879 1413.75 Q141.879 1412.68 142.644 1411.92 Q143.41 1411.13 144.571 1411.13 Q145.683 1411.13 146.424 1411.87 Q147.19 1412.58 147.19 1413.77 Q147.19 1414.93 146.375 1415.7 Q145.584 1416.44 144.571 1416.44 Q143.41 1416.44 142.644 1415.62 Z" fill="#000000" fill-rule="nonzero" fill-opacity="1" /><path clip-path="url(#clip480)" d="M153.613 1400.26 Q153.613 1392.82 155.49 1388.77 Q158.109 1382.74 164.284 1382.74 Q165.594 1382.74 166.952 1383.11 Q168.336 1383.46 170.065 1384.82 Q171.819 1386.18 172.881 1388.4 Q174.907 1392.7 174.907 1400.26 Q174.907 1407.64 173.029 1411.67 Q170.287 1417.55 164.235 1417.55 Q161.962 1417.55 159.64 1416.39 Q157.343 1415.23 155.885 1412.44 Q153.613 1408.26 153.613 1400.26 M157.812 1399.64 Q157.812 1407.27 158.356 1410.31 Q158.973 1413.6 160.653 1415.03 Q162.358 1416.44 164.235 1416.44 Q166.261 1416.44 167.941 1414.93 Q169.645 1413.4 170.164 1410.11 Q170.732 1406.88 170.707 1399.64 Q170.707 1392.6 170.213 1389.78 Q169.546 1386.5 167.768 1385.19 Q166.014 1383.85 164.235 1383.85 Q163.568 1383.85 162.852 1384.05 Q162.16 1384.25 161.147 1384.82 Q160.134 1385.39 159.344 1386.79 Q158.578 1388.2 158.207 1390.33 Q157.812 1393.07 157.812 1399.64 Z" fill="#000000" fill-rule="nonzero" fill-opacity="1" /><path clip-path="url(#clip480)" d="M178.909 1400.26 Q178.909 1392.82 180.786 1388.77 Q183.405 1382.74 189.581 1382.74 Q190.89 1382.74 192.249 1383.11 Q193.632 1383.46 195.361 1384.82 Q197.115 1386.18 198.177 1388.4 Q200.203 1392.7 200.203 1400.26 Q200.203 1407.64 198.326 1411.67 Q195.584 1417.55 189.531 1417.55 Q187.259 1417.55 184.936 1416.39 Q182.639 1415.23 181.182 1412.44 Q178.909 1408.26 178.909 1400.26 M183.108 1399.64 Q183.108 1407.27 183.652 1410.31 Q184.269 1413.6 185.949 1415.03 Q187.654 1416.44 189.531 1416.44 Q191.557 1416.44 193.237 1414.93 Q194.941 1413.4 195.46 1410.11 Q196.028 1406.88 196.004 1399.64 Q196.004 1392.6 195.51 1389.78 Q194.843 1386.5 193.064 1385.19 Q191.31 1383.85 189.531 1383.85 Q188.864 1383.85 188.148 1384.05 Q187.456 1384.25 186.443 1384.82 Q185.431 1385.39 184.64 1386.79 Q183.874 1388.2 183.504 1390.33 Q183.108 1393.07 183.108 1399.64 Z" fill="#000000" fill-rule="nonzero" fill-opacity="1" /><path clip-path="url(#clip480)" d="M203.637 1408.09 L203.637 1406.53 L219.175 1382.79 Q219.571 1382.17 220.188 1382.2 Q220.756 1382.2 220.88 1382.42 Q221.003 1382.64 221.003 1383.51 L221.003 1406.53 L226.068 1406.53 L226.068 1408.09 L221.003 1408.09 L221.003 1412.49 Q221.003 1413.94 221.596 1414.41 Q222.214 1414.88 224.832 1414.88 L225.895 1414.88 L225.895 1416.44 Q223.82 1416.29 219.027 1416.29 Q214.259 1416.29 212.184 1416.44 L212.184 1414.88 L213.247 1414.88 Q215.865 1414.88 216.483 1414.44 Q217.1 1413.97 217.1 1412.49 L217.1 1408.09 L203.637 1408.09 M205.07 1406.53 L217.397 1406.53 L217.397 1387.66 L205.07 1406.53 Z" fill="#000000" fill-rule="nonzero" fill-opacity="1" /><path clip-path="url(#clip480)" d="M114.977 1095.2 Q114.977 1087.76 116.854 1083.71 Q119.473 1077.68 125.648 1077.68 Q126.958 1077.68 128.316 1078.06 Q129.7 1078.4 131.429 1079.76 Q133.183 1081.12 134.245 1083.34 Q136.271 1087.64 136.271 1095.2 Q136.271 1102.59 134.393 1106.61 Q131.651 1112.49 125.599 1112.49 Q123.326 1112.49 121.004 1111.33 Q118.707 1110.17 117.249 1107.38 Q114.977 1103.2 114.977 1095.2 M119.176 1094.58 Q119.176 1102.22 119.72 1105.25 Q120.337 1108.54 122.017 1109.97 Q123.722 1111.38 125.599 1111.38 Q127.625 1111.38 129.305 1109.87 Q131.009 1108.34 131.528 1105.06 Q132.096 1101.82 132.071 1094.58 Q132.071 1087.54 131.577 1084.73 Q130.91 1081.44 129.132 1080.13 Q127.378 1078.8 125.599 1078.8 Q124.932 1078.8 124.216 1078.99 Q123.524 1079.19 122.511 1079.76 Q121.498 1080.33 120.708 1081.74 Q119.942 1083.14 119.571 1085.27 Q119.176 1088.01 119.176 1094.58 Z" fill="#000000" fill-rule="nonzero" fill-opacity="1" /><path clip-path="url(#clip480)" d="M143.361 1110.57 Q142.595 1109.75 142.595 1108.69 Q142.595 1107.63 143.361 1106.86 Q144.127 1106.07 145.288 1106.07 Q146.399 1106.07 147.14 1106.81 Q147.906 1107.53 147.906 1108.71 Q147.906 1109.87 147.091 1110.64 Q146.3 1111.38 145.288 1111.38 Q144.127 1111.38 143.361 1110.57 Z" fill="#000000" fill-rule="nonzero" fill-opacity="1" /><path clip-path="url(#clip480)" d="M154.329 1095.2 Q154.329 1087.76 156.206 1083.71 Q158.825 1077.68 165.001 1077.68 Q166.31 1077.68 167.669 1078.06 Q169.052 1078.4 170.781 1079.76 Q172.535 1081.12 173.598 1083.34 Q175.623 1087.64 175.623 1095.2 Q175.623 1102.59 173.746 1106.61 Q171.004 1112.49 164.951 1112.49 Q162.679 1112.49 160.357 1111.33 Q158.059 1110.17 156.602 1107.38 Q154.329 1103.2 154.329 1095.2 M158.529 1094.58 Q158.529 1102.22 159.072 1105.25 Q159.69 1108.54 161.369 1109.97 Q163.074 1111.38 164.951 1111.38 Q166.977 1111.38 168.657 1109.87 Q170.361 1108.34 170.88 1105.06 Q171.448 1101.82 171.424 1094.58 Q171.424 1087.54 170.93 1084.73 Q170.263 1081.44 168.484 1080.13 Q166.73 1078.8 164.951 1078.8 Q164.284 1078.8 163.568 1078.99 Q162.876 1079.19 161.864 1079.76 Q160.851 1080.33 160.06 1081.74 Q159.294 1083.14 158.924 1085.27 Q158.529 1088.01 158.529 1094.58 Z" fill="#000000" fill-rule="nonzero" fill-opacity="1" /><path clip-path="url(#clip480)" d="M179.625 1095.2 Q179.625 1087.76 181.503 1083.71 Q184.121 1077.68 190.297 1077.68 Q191.606 1077.68 192.965 1078.06 Q194.348 1078.4 196.078 1079.76 Q197.832 1081.12 198.894 1083.34 Q200.92 1087.64 200.92 1095.2 Q200.92 1102.59 199.042 1106.61 Q196.3 1112.49 190.248 1112.49 Q187.975 1112.49 185.653 1111.33 Q183.355 1110.17 181.898 1107.38 Q179.625 1103.2 179.625 1095.2 M183.825 1094.58 Q183.825 1102.22 184.368 1105.25 Q184.986 1108.54 186.666 1109.97 Q188.37 1111.38 190.248 1111.38 Q192.273 1111.38 193.953 1109.87 Q195.658 1108.34 196.176 1105.06 Q196.745 1101.82 196.72 1094.58 Q196.72 1087.54 196.226 1084.73 Q195.559 1081.44 193.78 1080.13 Q192.026 1078.8 190.248 1078.8 Q189.581 1078.8 188.864 1078.99 Q188.173 1079.19 187.16 1079.76 Q186.147 1080.33 185.356 1081.74 Q184.591 1083.14 184.22 1085.27 Q183.825 1088.01 183.825 1094.58 Z" fill="#000000" fill-rule="nonzero" fill-opacity="1" /><path clip-path="url(#clip480)" d="M205.07 1095.4 Q205.07 1087.44 209.121 1082.58 Q213.172 1077.68 218.385 1077.68 Q221.423 1077.68 223.103 1079.24 Q224.808 1080.77 224.808 1083.14 Q224.808 1084.45 224.042 1085.02 Q223.276 1085.59 222.486 1085.59 Q221.572 1085.59 220.855 1084.97 Q220.139 1084.35 220.139 1083.24 Q220.139 1080.97 222.93 1080.97 Q221.621 1078.94 218.484 1078.94 Q217.52 1078.94 216.532 1079.24 Q215.544 1079.51 214.259 1080.45 Q212.975 1081.39 211.987 1082.87 Q210.999 1084.35 210.307 1087.15 Q209.615 1089.94 209.615 1093.57 L209.615 1094.78 Q211.69 1089.76 215.939 1089.79 Q220.188 1089.79 223.128 1093.03 Q226.068 1096.26 226.068 1101.05 Q226.068 1105.97 223.004 1109.23 Q219.941 1112.49 215.643 1112.49 Q213.716 1112.49 211.962 1111.68 Q210.233 1110.89 208.602 1109.06 Q206.997 1107.23 206.033 1103.72 Q205.07 1100.21 205.07 1095.4 M209.714 1099.94 Q209.714 1104.91 210.628 1107.28 Q210.776 1107.67 211.097 1108.22 Q211.443 1108.76 212.011 1109.48 Q212.604 1110.17 213.568 1110.64 Q214.531 1111.08 215.643 1111.08 Q219.027 1111.08 220.658 1107.8 Q221.522 1105.97 221.522 1101 Q221.522 1095.94 220.608 1094.09 Q219.052 1090.95 215.89 1090.95 Q213.765 1090.95 212.283 1092.41 Q210.826 1093.87 210.257 1095.82 Q209.714 1097.77 209.714 1099.94 Z" fill="#000000" fill-rule="nonzero" fill-opacity="1" /><path clip-path="url(#clip480)" d="M114.977 790.142 Q114.977 782.706 116.854 778.655 Q119.473 772.628 125.648 772.628 Q126.958 772.628 128.316 772.998 Q129.7 773.344 131.429 774.703 Q133.183 776.061 134.245 778.285 Q136.271 782.583 136.271 790.142 Q136.271 797.529 134.393 801.555 Q131.651 807.435 125.599 807.435 Q123.326 807.435 121.004 806.273 Q118.707 805.112 117.249 802.321 Q114.977 798.146 114.977 790.142 M119.176 789.525 Q119.176 797.158 119.72 800.196 Q120.337 803.482 122.017 804.915 Q123.722 806.323 125.599 806.323 Q127.625 806.323 129.305 804.816 Q131.009 803.284 131.528 799.999 Q132.096 796.763 132.071 789.525 Q132.071 782.484 131.577 779.668 Q130.91 776.382 129.132 775.073 Q127.378 773.739 125.599 773.739 Q124.932 773.739 124.216 773.937 Q123.524 774.134 122.511 774.703 Q121.498 775.271 120.708 776.679 Q119.942 778.087 119.571 780.211 Q119.176 782.954 119.176 789.525 Z" fill="#000000" fill-rule="nonzero" fill-opacity="1" /><path clip-path="url(#clip480)" d="M143.361 805.508 Q142.595 804.692 142.595 803.63 Q142.595 802.568 143.361 801.802 Q144.127 801.012 145.288 801.012 Q146.399 801.012 147.14 801.753 Q147.906 802.469 147.906 803.655 Q147.906 804.816 147.091 805.582 Q146.3 806.323 145.288 806.323 Q144.127 806.323 143.361 805.508 Z" fill="#000000" fill-rule="nonzero" fill-opacity="1" /><path clip-path="url(#clip480)" d="M154.329 790.142 Q154.329 782.706 156.206 778.655 Q158.825 772.628 165.001 772.628 Q166.31 772.628 167.669 772.998 Q169.052 773.344 170.781 774.703 Q172.535 776.061 173.598 778.285 Q175.623 782.583 175.623 790.142 Q175.623 797.529 173.746 801.555 Q171.004 807.435 164.951 807.435 Q162.679 807.435 160.357 806.273 Q158.059 805.112 156.602 802.321 Q154.329 798.146 154.329 790.142 M158.529 789.525 Q158.529 797.158 159.072 800.196 Q159.69 803.482 161.369 804.915 Q163.074 806.323 164.951 806.323 Q166.977 806.323 168.657 804.816 Q170.361 803.284 170.88 799.999 Q171.448 796.763 171.424 789.525 Q171.424 782.484 170.93 779.668 Q170.263 776.382 168.484 775.073 Q166.73 773.739 164.951 773.739 Q164.284 773.739 163.568 773.937 Q162.876 774.134 161.864 774.703 Q160.851 775.271 160.06 776.679 Q159.294 778.087 158.924 780.211 Q158.529 782.954 158.529 789.525 Z" fill="#000000" fill-rule="nonzero" fill-opacity="1" /><path clip-path="url(#clip480)" d="M179.625 790.142 Q179.625 782.706 181.503 778.655 Q184.121 772.628 190.297 772.628 Q191.606 772.628 192.965 772.998 Q194.348 773.344 196.078 774.703 Q197.832 776.061 198.894 778.285 Q200.92 782.583 200.92 790.142 Q200.92 797.529 199.042 801.555 Q196.3 807.435 190.248 807.435 Q187.975 807.435 185.653 806.273 Q183.355 805.112 181.898 802.321 Q179.625 798.146 179.625 790.142 M183.825 789.525 Q183.825 797.158 184.368 800.196 Q184.986 803.482 186.666 804.915 Q188.37 806.323 190.248 806.323 Q192.273 806.323 193.953 804.816 Q195.658 803.284 196.176 799.999 Q196.745 796.763 196.72 789.525 Q196.72 782.484 196.226 779.668 Q195.559 776.382 193.78 775.073 Q192.026 773.739 190.248 773.739 Q189.581 773.739 188.864 773.937 Q188.173 774.134 187.16 774.703 Q186.147 775.271 185.356 776.679 Q184.591 778.087 184.22 780.211 Q183.825 782.954 183.825 789.525 Z" fill="#000000" fill-rule="nonzero" fill-opacity="1" /><path clip-path="url(#clip480)" d="M205.07 798.69 Q205.07 793.032 212.357 789.376 Q209.22 787.252 208.652 786.634 Q206.428 784.164 206.428 781.076 Q206.428 777.543 209.096 775.098 Q211.789 772.628 215.593 772.628 Q219.225 772.628 221.967 774.727 Q224.709 776.827 224.709 780.162 Q224.709 784.856 218.582 788.018 Q222.634 790.537 223.597 791.6 Q226.068 794.342 226.068 797.825 Q226.068 801.876 222.955 804.668 Q219.842 807.435 215.544 807.435 Q211.344 807.435 208.207 804.989 Q205.07 802.543 205.07 798.69 M207.589 798.69 Q207.589 801.827 209.936 803.927 Q212.308 806.026 215.593 806.026 Q218.78 806.026 221.152 804.198 Q223.548 802.37 223.548 799.653 Q223.548 798.591 223.177 797.677 Q222.831 796.763 222.115 796.046 Q221.423 795.305 220.979 794.984 Q220.559 794.638 219.744 794.07 L213.518 790.142 Q207.589 793.428 207.589 798.69 M208.652 779.1 Q208.652 781.521 211.196 783.201 L217.471 787.252 Q222.486 784.312 222.486 780.162 Q222.486 777.469 220.435 775.691 Q218.385 773.887 215.544 773.887 Q212.752 773.887 210.702 775.37 Q208.652 776.827 208.652 779.1 Z" fill="#000000" fill-rule="nonzero" fill-opacity="1" /><path clip-path="url(#clip480)" d="M114.828 485.085 Q114.828 477.649 116.706 473.598 Q119.324 467.57 125.5 467.57 Q126.809 467.57 128.168 467.941 Q129.552 468.287 131.281 469.645 Q133.035 471.004 134.097 473.227 Q136.123 477.526 136.123 485.085 Q136.123 492.471 134.245 496.498 Q131.503 502.377 125.451 502.377 Q123.178 502.377 120.856 501.216 Q118.559 500.055 117.101 497.264 Q114.828 493.089 114.828 485.085 M119.028 484.467 Q119.028 492.101 119.571 495.139 Q120.189 498.425 121.869 499.857 Q123.573 501.265 125.451 501.265 Q127.476 501.265 129.156 499.759 Q130.861 498.227 131.38 494.941 Q131.948 491.705 131.923 484.467 Q131.923 477.427 131.429 474.611 Q130.762 471.325 128.983 470.016 Q127.229 468.682 125.451 468.682 Q124.784 468.682 124.067 468.879 Q123.376 469.077 122.363 469.645 Q121.35 470.213 120.56 471.621 Q119.794 473.03 119.423 475.154 Q119.028 477.896 119.028 484.467 Z" fill="#000000" fill-rule="nonzero" fill-opacity="1" /><path clip-path="url(#clip480)" d="M143.212 500.45 Q142.447 499.635 142.447 498.573 Q142.447 497.511 143.212 496.745 Q143.978 495.954 145.139 495.954 Q146.251 495.954 146.992 496.695 Q147.758 497.412 147.758 498.598 Q147.758 499.759 146.943 500.524 Q146.152 501.265 145.139 501.265 Q143.978 501.265 143.212 500.45 Z" fill="#000000" fill-rule="nonzero" fill-opacity="1" /><path clip-path="url(#clip480)" d="M154.181 485.085 Q154.181 477.649 156.058 473.598 Q158.677 467.57 164.853 467.57 Q166.162 467.57 167.521 467.941 Q168.904 468.287 170.633 469.645 Q172.387 471.004 173.449 473.227 Q175.475 477.526 175.475 485.085 Q175.475 492.471 173.598 496.498 Q170.856 502.377 164.803 502.377 Q162.531 502.377 160.208 501.216 Q157.911 500.055 156.453 497.264 Q154.181 493.089 154.181 485.085 M158.38 484.467 Q158.38 492.101 158.924 495.139 Q159.541 498.425 161.221 499.857 Q162.926 501.265 164.803 501.265 Q166.829 501.265 168.509 499.759 Q170.213 498.227 170.732 494.941 Q171.3 491.705 171.276 484.467 Q171.276 477.427 170.781 474.611 Q170.114 471.325 168.336 470.016 Q166.582 468.682 164.803 468.682 Q164.136 468.682 163.42 468.879 Q162.728 469.077 161.715 469.645 Q160.702 470.213 159.912 471.621 Q159.146 473.03 158.776 475.154 Q158.38 477.896 158.38 484.467 Z" fill="#000000" fill-rule="nonzero" fill-opacity="1" /><path clip-path="url(#clip480)" d="M181.997 472.387 L181.997 470.806 Q188.074 470.806 191.211 467.57 Q192.076 467.57 192.224 467.768 Q192.372 467.965 192.372 468.879 L192.372 497.264 Q192.372 498.77 193.113 499.24 Q193.854 499.709 197.091 499.709 L198.696 499.709 L198.696 501.265 Q196.918 501.117 190.495 501.117 Q184.072 501.117 182.318 501.265 L182.318 499.709 L183.924 499.709 Q187.11 499.709 187.876 499.265 Q188.642 498.795 188.642 497.264 L188.642 471.053 Q185.999 472.387 181.997 472.387 Z" fill="#000000" fill-rule="nonzero" fill-opacity="1" /><path clip-path="url(#clip480)" d="M204.773 485.085 Q204.773 477.649 206.651 473.598 Q209.269 467.57 215.445 467.57 Q216.754 467.57 218.113 467.941 Q219.496 468.287 221.226 469.645 Q222.98 471.004 224.042 473.227 Q226.068 477.526 226.068 485.085 Q226.068 492.471 224.19 496.498 Q221.448 502.377 215.396 502.377 Q213.123 502.377 210.801 501.216 Q208.503 500.055 207.046 497.264 Q204.773 493.089 204.773 485.085 M208.973 484.467 Q208.973 492.101 209.516 495.139 Q210.134 498.425 211.814 499.857 Q213.518 501.265 215.396 501.265 Q217.421 501.265 219.101 499.759 Q220.806 498.227 221.325 494.941 Q221.893 491.705 221.868 484.467 Q221.868 477.427 221.374 474.611 Q220.707 471.325 218.928 470.016 Q217.174 468.682 215.396 468.682 Q214.729 468.682 214.012 468.879 Q213.321 469.077 212.308 469.645 Q211.295 470.213 210.504 471.621 Q209.739 473.03 209.368 475.154 Q208.973 477.896 208.973 484.467 Z" fill="#000000" fill-rule="nonzero" fill-opacity="1" /><path clip-path="url(#clip480)" d="M115.372 180.027 Q115.372 172.592 117.249 168.54 Q119.868 162.513 126.044 162.513 Q127.353 162.513 128.712 162.883 Q130.095 163.229 131.824 164.588 Q133.578 165.946 134.64 168.17 Q136.666 172.468 136.666 180.027 Q136.666 187.414 134.789 191.44 Q132.047 197.32 125.994 197.32 Q123.722 197.32 121.399 196.159 Q119.102 194.998 117.645 192.206 Q115.372 188.031 115.372 180.027 M119.571 179.41 Q119.571 187.043 120.115 190.082 Q120.732 193.367 122.412 194.8 Q124.117 196.208 125.994 196.208 Q128.02 196.208 129.7 194.701 Q131.404 193.17 131.923 189.884 Q132.491 186.648 132.467 179.41 Q132.467 172.369 131.972 169.553 Q131.305 166.268 129.527 164.958 Q127.773 163.624 125.994 163.624 Q125.327 163.624 124.611 163.822 Q123.919 164.02 122.906 164.588 Q121.893 165.156 121.103 166.564 Q120.337 167.972 119.967 170.097 Q119.571 172.839 119.571 179.41 Z" fill="#000000" fill-rule="nonzero" fill-opacity="1" /><path clip-path="url(#clip480)" d="M143.756 195.393 Q142.99 194.578 142.99 193.515 Q142.99 192.453 143.756 191.687 Q144.522 190.897 145.683 190.897 Q146.794 190.897 147.536 191.638 Q148.301 192.354 148.301 193.54 Q148.301 194.701 147.486 195.467 Q146.696 196.208 145.683 196.208 Q144.522 196.208 143.756 195.393 Z" fill="#000000" fill-rule="nonzero" fill-opacity="1" /><path clip-path="url(#clip480)" d="M154.724 180.027 Q154.724 172.592 156.602 168.54 Q159.22 162.513 165.396 162.513 Q166.705 162.513 168.064 162.883 Q169.447 163.229 171.177 164.588 Q172.931 165.946 173.993 168.17 Q176.019 172.468 176.019 180.027 Q176.019 187.414 174.141 191.44 Q171.399 197.32 165.347 197.32 Q163.074 197.32 160.752 196.159 Q158.454 194.998 156.997 192.206 Q154.724 188.031 154.724 180.027 M158.924 179.41 Q158.924 187.043 159.467 190.082 Q160.085 193.367 161.765 194.8 Q163.469 196.208 165.347 196.208 Q167.372 196.208 169.052 194.701 Q170.757 193.17 171.276 189.884 Q171.844 186.648 171.819 179.41 Q171.819 172.369 171.325 169.553 Q170.658 166.268 168.879 164.958 Q167.125 163.624 165.347 163.624 Q164.68 163.624 163.963 163.822 Q163.272 164.02 162.259 164.588 Q161.246 165.156 160.455 166.564 Q159.69 167.972 159.319 170.097 Q158.924 172.839 158.924 179.41 Z" fill="#000000" fill-rule="nonzero" fill-opacity="1" /><path clip-path="url(#clip480)" d="M182.54 167.33 L182.54 165.749 Q188.617 165.749 191.755 162.513 Q192.619 162.513 192.767 162.71 Q192.916 162.908 192.916 163.822 L192.916 192.206 Q192.916 193.713 193.657 194.182 Q194.398 194.652 197.634 194.652 L199.24 194.652 L199.24 196.208 Q197.461 196.06 191.038 196.06 Q184.615 196.06 182.861 196.208 L182.861 194.652 L184.467 194.652 Q187.654 194.652 188.42 194.207 Q189.185 193.738 189.185 192.206 L189.185 165.996 Q186.542 167.33 182.54 167.33 Z" fill="#000000" fill-rule="nonzero" fill-opacity="1" /><path clip-path="url(#clip480)" d="M205.86 196.208 Q205.86 195.294 205.934 195.022 Q206.033 194.751 206.428 194.331 L216.137 183.511 Q221.448 177.532 221.448 172.32 Q221.448 168.936 219.669 166.515 Q217.915 164.094 214.679 164.094 Q212.456 164.094 210.579 165.452 Q208.701 166.811 207.836 169.232 Q207.985 169.183 208.503 169.183 Q209.763 169.183 210.455 169.973 Q211.171 170.764 211.171 171.826 Q211.171 173.185 210.282 173.852 Q209.417 174.494 208.553 174.494 Q208.207 174.494 207.738 174.42 Q207.293 174.346 206.577 173.654 Q205.86 172.938 205.86 171.678 Q205.86 168.145 208.528 165.329 Q211.221 162.513 215.322 162.513 Q219.966 162.513 223.004 165.279 Q226.068 168.022 226.068 172.32 Q226.068 173.827 225.598 175.21 Q225.154 176.569 224.536 177.631 Q223.943 178.693 222.313 180.398 Q220.682 182.102 219.373 183.313 Q218.064 184.523 215.124 187.093 L209.763 192.305 L218.879 192.305 Q223.325 192.305 223.671 191.91 Q224.165 191.193 224.783 187.414 L226.068 187.414 L224.635 196.208 L205.86 196.208 Z" fill="#000000" fill-rule="nonzero" fill-opacity="1" /><path clip-path="url(#clip480)" d="M16.2797 728.147 L33.0911 732.301 Q34.1539 732.591 34.2828 732.784 Q34.4116 732.945 34.4116 733.461 Q34.4116 734.459 33.7353 734.459 Q33.6709 734.459 32.8335 734.362 Q31.9639 734.266 30.3859 734.266 Q24.5566 734.266 21.1106 737.1 Q17.6645 739.902 17.6645 744.894 Q17.6645 749.209 19.8545 753.557 Q22.0445 757.873 25.6194 760.964 Q28.3247 763.283 31.7385 764.99 Q35.1523 766.665 38.2763 767.47 Q41.4003 768.243 43.7513 768.597 Q46.1023 768.951 47.8092 768.951 Q50.2891 768.951 52.3825 768.436 Q54.4758 767.889 55.9573 766.922 Q57.4066 765.956 58.5338 764.732 Q59.6288 763.476 60.2729 762.027 Q60.917 760.546 61.2391 759.064 Q61.5289 757.583 61.5289 756.037 Q61.5289 749.821 56.698 743.895 Q52.7367 739.193 46.2633 737.229 Q45.6192 737.068 45.6192 736.391 Q45.6192 735.586 46.2633 735.586 Q46.3922 735.586 47.0363 735.747 Q47.6482 735.908 48.9042 736.391 Q50.128 736.874 51.5129 737.615 Q52.8977 738.356 54.6369 739.741 Q56.376 741.126 57.8897 742.832 Q60.4017 745.731 61.9798 749.402 Q63.5579 753.074 63.5579 757.1 Q63.5579 762.124 61.3357 766.182 Q59.1135 770.24 54.9589 772.623 Q50.8044 774.974 45.4904 774.974 Q39.8866 774.974 34.3794 772.397 Q28.8722 769.821 24.782 765.731 Q20.6919 761.641 18.1476 756.23 Q15.6034 750.82 15.6034 745.409 Q15.6034 743.348 16.1509 741.512 Q16.6984 739.676 17.3747 738.581 Q18.051 737.454 19.0494 736.456 Q20.0156 735.457 20.4664 735.135 Q20.9173 734.781 21.4648 734.459 L16.4085 729.854 Q15.6034 729.048 15.6034 728.855 Q15.6034 728.469 15.8288 728.308 Q16.0542 728.147 16.2797 728.147 Z" fill="#000000" fill-rule="nonzero" fill-opacity="1" /><path clip-path="url(#clip480)" d="M53.9457 703.704 Q55.9973 703.704 58.2968 704.448 Q60.5737 705.169 62.5351 706.251 Q64.4964 707.311 66.5028 708.776 Q68.5092 710.242 69.9295 711.482 Q71.3498 712.722 72.6348 714.007 Q73.3337 714.706 73.8071 715.021 Q73.9424 715.111 75.0019 715.179 Q76.039 715.247 76.4222 715.247 Q82.4415 715.247 82.4415 712.429 Q82.4415 710.084 78.8344 706.432 Q78.4061 705.958 78.4061 705.823 Q78.4061 705.553 78.609 705.417 Q78.8119 705.282 78.9697 705.282 Q79.2628 705.282 80.2547 706.364 Q81.2467 707.424 81.6975 708.078 Q83.456 710.512 83.456 712.519 Q83.456 716.802 76.3771 717.681 Q77.324 718.628 77.9552 719.35 Q78.9246 720.319 79.1501 720.59 Q79.3755 720.86 79.3755 721.018 Q79.3755 721.221 79.1726 721.401 Q78.9697 721.559 78.7893 721.559 Q78.6541 721.559 78.3159 721.333 L74.9569 717.794 Q67.3369 717.794 59.0182 714.142 Q58.432 713.894 57.6881 713.533 Q56.9216 713.173 55.5238 712.338 Q54.1261 711.504 53.0665 710.67 Q51.9844 709.813 51.1728 708.664 Q50.3387 707.514 50.3387 706.432 Q50.3387 703.704 53.9457 703.704 M53.7654 704.809 Q51.3532 704.809 51.3532 706.387 Q51.3532 707.401 52.3902 708.19 Q53.4272 708.957 55.7042 710.084 Q58.1164 711.256 62.242 712.451 Q66.345 713.623 68.5994 714.119 Q70.8538 714.593 71.8683 714.773 Q61.498 704.809 53.7654 704.809 Z" fill="#000000" fill-rule="nonzero" fill-opacity="1" /><polyline clip-path="url(#clip482)" style="stroke:#009af9; stroke-linecap:round; stroke-linejoin:round; stroke-width:4; stroke-opacity:1; fill:none" points="321.238,543.344 376.025,86.1857 430.813,1125.31 485.6,819.456 540.388,729.45 595.175,1159.69 649.963,804.454 704.75,1369.18 759.537,1162.65 814.325,1329.42 869.112,866.788 923.9,1156.53 978.687,1302.45 1033.47,1192.15 1088.26,823.82 1143.05,792.057 1197.84,1062.66 1252.62,1361.26 1307.41,1060.56 1362.2,781.411 1416.99,1224.12 1471.77,1141.72 1526.56,829.614 1581.35,958.635 1636.14,1384.24 1690.92,1079.86 1745.71,1097.4 1800.5,1100.94 1855.29,1353.47 1910.07,1220.22 1964.86,1034.13 2019.65,1114.85 2074.44,1196.92 2129.22,953.364 2184.01,1274.33 2238.8,1029.95 2293.59,1205.79 "/>
<path clip-path="url(#clip480)" d="M2027.11 196.789 L2283.07 196.789 L2283.07 93.1086 L2027.11 93.1086  Z" fill="#ffffff" fill-rule="evenodd" fill-opacity="1"/>
<polyline clip-path="url(#clip480)" style="stroke:#000000; stroke-linecap:round; stroke-linejoin:round; stroke-width:4; stroke-opacity:1; fill:none" points="2027.11,196.789 2283.07,196.789 2283.07,93.1086 2027.11,93.1086 2027.11,196.789 "/>
<polyline clip-path="url(#clip480)" style="stroke:#009af9; stroke-linecap:round; stroke-linejoin:round; stroke-width:4; stroke-opacity:1; fill:none" points="2050.34,144.949 2189.72,144.949 "/>
<path clip-path="url(#clip480)" d="M2212.95 168.503 Q2212.95 167.441 2213.57 166.873 Q2214.21 166.329 2215.07 166.329 Q2215.99 166.329 2216.58 166.898 Q2217.2 167.49 2217.2 168.454 Q2217.2 170.331 2215.22 170.578 Q2216.19 171.492 2217.59 171.492 Q2219.1 171.492 2220.31 170.381 Q2221.55 169.269 2222.06 168.207 Q2222.61 167.145 2223.37 165.218 Q2224.09 163.711 2224.63 162.229 L2217.05 143.751 Q2216.56 142.54 2215.79 142.268 Q2215.02 141.997 2212.95 141.997 L2212.95 140.416 Q2215.22 140.564 2217.87 140.564 Q2219.42 140.564 2223.37 140.416 L2223.37 141.997 Q2220.53 141.997 2220.53 143.306 Q2220.53 143.454 2220.83 144.22 L2226.46 157.831 L2231.58 145.381 Q2231.87 144.665 2231.87 144.17 Q2231.87 142.095 2229.5 141.997 L2229.5 140.416 Q2232.84 140.564 2233.9 140.564 Q2235.97 140.564 2237.68 140.416 L2237.68 141.997 Q2234.29 141.997 2232.98 145.233 L2224.07 166.823 Q2221.65 172.579 2217.59 172.604 Q2215.67 172.604 2214.31 171.418 Q2212.95 170.233 2212.95 168.503 Z" fill="#000000" fill-rule="nonzero" fill-opacity="1" /><path clip-path="url(#clip480)" d="M2243.14 133.35 L2243.14 131.769 Q2249.21 131.769 2252.35 128.533 Q2253.22 128.533 2253.36 128.731 Q2253.51 128.928 2253.51 129.843 L2253.51 158.227 Q2253.51 159.734 2254.25 160.203 Q2254.99 160.672 2258.23 160.672 L2259.84 160.672 L2259.84 162.229 Q2258.06 162.08 2251.63 162.08 Q2245.21 162.08 2243.46 162.229 L2243.46 160.672 L2245.06 160.672 Q2248.25 160.672 2249.02 160.228 Q2249.78 159.758 2249.78 158.227 L2249.78 132.016 Q2247.14 133.35 2243.14 133.35 Z" fill="#000000" fill-rule="nonzero" fill-opacity="1" /></svg>
